<?xml version="1.0" encoding="UTF-8"?>
<svg version="1.1" xmlns="http://www.w3.org/2000/svg" width="1024" height="1024">
<path d="M0 0 C17.62471749 14.82668542 29.68454047 34.78550246 31.91162109 57.98583984 C33.08886793 76.93150751 30.30099817 93.68376053 20.8828125 110.21484375 C19.46688893 113.35010308 19.4990878 113.89235112 20.625 117 C21.86153645 119.04938515 21.86153645 119.04938515 23.43359375 121.08984375 C24.01085205 121.8677124 24.58811035 122.64558105 25.18286133 123.44702148 C26.11328247 124.67980835 26.11328247 124.67980835 27.0625 125.9375 C27.69631592 126.78707275 28.33013184 127.63664551 28.9831543 128.51196289 C33.37511028 134.38437843 37.82510393 140.21115631 42.31640625 146.0078125 C46.66611959 151.64551202 50.91292463 157.3610128 55.16796875 163.0703125 C58.15907418 167.07520997 61.19589141 171.04301499 64.25 175 C69.58670086 181.91895918 74.82584604 188.90926349 80.05761719 195.90771484 C81.67209527 198.06286705 83.29232282 200.21358906 84.9140625 202.36328125 C85.72061279 203.43388794 85.72061279 203.43388794 86.54345703 204.52612305 C87.56663458 205.88398926 88.59097183 207.24098273 89.61669922 208.59692383 C92.41908842 212.32070609 95.07861767 216.09634784 97.625 220 C98.67558594 219.73445312 99.72617187 219.46890625 100.80859375 219.1953125 C102.22654618 218.83847679 103.64451586 218.48170966 105.0625 218.125 C105.75021484 217.95097656 106.43792969 217.77695312 107.14648438 217.59765625 C109.30379357 217.05582045 111.46416753 216.5275923 113.625 216 C114.35485107 215.81324707 115.08470215 215.62649414 115.83666992 215.43408203 C134.19090224 210.96840041 155.10439894 213.93349414 171.625 223 C172.46160156 223.45246094 173.29820312 223.90492188 174.16015625 224.37109375 C180.48084069 227.97593541 186.1228648 232.25021607 191.625 237 C192.31464844 237.59296875 193.00429688 238.1859375 193.71484375 238.796875 C208.14762543 252.17220535 217.54982391 273.54743691 218.74902344 293.01318359 C219.42000395 310.95984131 216.24856763 328.57978052 206.625 344 C206.18414063 344.72703125 205.74328125 345.4540625 205.2890625 346.203125 C197.16892154 359.03384496 186.28329366 369.41992806 172.75 376.3125 C172.13890381 376.62590332 171.52780762 376.93930664 170.89819336 377.26220703 C164.57833873 380.31643614 158.53953994 381.87244925 151.625 384 C151.295 418.65 150.965 453.3 150.625 489 C152.935 489.33 155.245 489.66 157.625 490 C178.12945037 496.33040227 196.81329111 510.7834329 207.375 529.625 C208.1315673 531.07993712 208.88197862 532.53809873 209.625 534 C209.97175781 534.60972656 210.31851563 535.21945312 210.67578125 535.84765625 C220.64881325 553.98394225 221.08802295 577.40771289 215.625 597 C211.96246574 608.6583966 206.14503187 621.0315454 197.625 630 C196.965 630 196.305 630 195.625 630 C195.356875 630.639375 195.08875 631.27875 194.8125 631.9375 C193.625 634 193.625 634 190.625 635 C190.295 635.99 189.965 636.98 189.625 638 C187.53308646 639.73835069 185.47104396 641.31905047 183.25 642.875 C182.61658691 643.32117676 181.98317383 643.76735352 181.33056641 644.22705078 C166.53398602 654.41296756 150.72810442 658.17574616 133 658.25 C131.18822266 658.2809375 131.18822266 658.2809375 129.33984375 658.3125 C118.64317539 658.3585567 109.26120028 656.28847185 99.375 652.3125 C98.27671875 651.87550781 97.1784375 651.43851563 96.046875 650.98828125 C95.24765625 650.66214844 94.4484375 650.33601562 93.625 650 C85.75046897 660.27266964 77.90295805 670.56075008 70.25 681 C64.41555953 688.95687119 58.45507641 696.79782978 52.39257812 704.58251953 C47.33023041 711.08814969 42.41442726 717.65933431 37.66943359 724.40014648 C33.45057915 730.34116652 28.96161133 736.06644234 24.44628906 741.78393555 C21.31935105 745.75653184 18.35795115 749.74575092 15.625 754 C16.14449219 754.78761719 16.66398438 755.57523438 17.19921875 756.38671875 C30.29841501 776.84664636 35.74999458 800.02415902 30.625 824 C27.05734889 837.21103887 21.63205045 850.50725051 12.625 861 C11.965 861 11.305 861 10.625 861 C10.39167969 861.56332031 10.15835938 862.12664063 9.91796875 862.70703125 C2.28040285 876.25159677 -17.19954291 885.00738605 -31.375 889 C-51.41843359 894.37130096 -76.01888493 892.10188329 -94.19042969 881.98974609 C-101.02179431 877.94782554 -107.68105573 873.55837417 -113.375 868 C-113.375 867.34 -113.375 866.68 -113.375 866 C-114.014375 865.731875 -114.65375 865.46375 -115.3125 865.1875 C-117.375 864 -117.375 864 -118.375 861 C-119.035 861 -119.695 861 -120.375 861 C-128.84981851 851.29532656 -137.375 836.12898801 -137.375 823 C-200.735 823 -264.095 823 -329.375 823 C-329.705 825.64 -330.035 828.28 -330.375 831 C-331.02001953 833.20239258 -331.02001953 833.20239258 -331.7578125 834.89453125 C-332.03439697 835.53463135 -332.31098145 836.17473145 -332.59594727 836.83422852 C-332.89428467 837.48705811 -333.19262207 838.1398877 -333.5 838.8125 C-333.8105835 839.504646 -334.12116699 840.19679199 -334.44116211 840.90991211 C-344.4337257 862.62466669 -361.280833 877.161883 -383.27734375 886.19140625 C-405.35405986 894.22199694 -429.07606942 892.10670121 -450.375 883 C-453.07074431 881.71587271 -455.72102939 880.3699826 -458.375 879 C-458.375 878.34 -458.375 877.68 -458.375 877 C-459.035 876.79375 -459.695 876.5875 -460.375 876.375 C-467.88370977 872.93350802 -473.30421932 867.39407652 -478.375 861 C-479.0246875 860.18660156 -479.674375 859.37320313 -480.34375 858.53515625 C-495.47889244 838.71394086 -500.75097703 816.66412143 -498.375 792 C-496.56589647 779.6999373 -491.53508934 765.49344201 -483.5703125 755.8046875 C-482.17797567 754.09021442 -482.17797567 754.09021442 -482.47265625 752.05859375 C-483.62161596 749.43737397 -485.09770618 747.35694243 -486.8125 745.0625 C-487.53308594 744.09441406 -488.25367188 743.12632812 -488.99609375 742.12890625 C-491.86764198 738.35204232 -494.75703407 734.5894506 -497.66186523 730.83813477 C-500.29309069 727.43340456 -502.8582771 723.99093821 -505.375 720.5 C-508.68872824 715.9061192 -512.11314276 711.40575778 -515.57836914 706.92602539 C-519.90478494 701.32914753 -524.14305468 695.66855661 -528.375 690 C-528.95378906 689.26910156 -529.53257812 688.53820312 -530.12890625 687.78515625 C-531.375 686 -531.375 686 -531.375 684 C-532.035 684 -532.695 684 -533.375 684 C-534.75809851 682.0340864 -536.08283098 680.02683916 -537.375 678 C-538.75629066 676.11426094 -540.15260589 674.23945013 -541.5625 672.375 C-542.33851563 671.34632813 -543.11453125 670.31765625 -543.9140625 669.2578125 C-544.51589355 668.46165527 -544.51589355 668.46165527 -545.12988281 667.64941406 C-547.23943815 664.8548737 -549.33788365 662.05201053 -551.4375 659.25 C-552.19160156 658.24453125 -552.94570313 657.2390625 -553.72265625 656.203125 C-554.26792969 655.47609375 -554.81320312 654.7490625 -555.375 654 C-559.69255895 654.93946885 -563.98995504 655.88701042 -568.25 657.0625 C-573.26129679 658.30553651 -578.22736544 658.72456177 -583.375 659 C-584.01195801 659.04463379 -584.64891602 659.08926758 -585.30517578 659.13525391 C-609.54357516 660.70472879 -630.24843213 650.8850372 -648.3984375 635.2578125 C-664.67333212 619.86662256 -673.95887892 597.65447931 -674.78173828 575.44458008 C-675.10798468 551.50689795 -666.04952025 529.1260415 -649.390625 511.92578125 C-637.43014323 500.06327198 -624.33936396 494.32145465 -608.375 489 C-608.045 454.35 -607.715 419.7 -607.375 384 C-613.315 382.515 -613.315 382.515 -619.375 381 C-622.16926751 379.86482882 -624.7262828 378.75915493 -627.375 377.375 C-628.04797119 377.02945068 -628.72094238 376.68390137 -629.41430664 376.32788086 C-649.70475911 365.58700915 -664.55333859 348.2740965 -671.52734375 326.3828125 C-678.745825 301.67043186 -676.17580137 278.85399297 -663.90234375 256.29296875 C-653.01992083 237.40108257 -635.48344779 223.05075305 -614.29174805 217.14135742 C-591.11364449 211.09452271 -567.73912492 212.87943944 -546.546875 224.55859375 C-539.78681677 228.64672952 -534.06856638 233.55058312 -528.375 239 C-527.73691406 239.57492187 -527.09882812 240.14984375 -526.44140625 240.7421875 C-512.28889129 253.91758005 -503.95315494 275.22487686 -503.13671875 294.36328125 C-502.63868179 316.4198418 -508.0971783 336.78105398 -522.375 354 C-523.06335938 354.85078125 -523.75171875 355.7015625 -524.4609375 356.578125 C-532.10788175 365.57777779 -541.04300012 372.06558647 -551.5 377.375 C-552.13236572 377.69678223 -552.76473145 378.01856445 -553.41625977 378.35009766 C-558.71220666 380.91828219 -563.56459306 382.25687792 -569.375 384 C-569.705 418.98 -570.035 453.96 -570.375 490 C-568.065 490.33 -565.755 490.66 -563.375 491 C-540.64840863 498.62616903 -522.7290498 513.97102044 -511.375 535 C-508.24667543 541.74824301 -506.43270079 547.59609445 -505.375 555 C-409.84 554.505 -409.84 554.505 -312.375 554 C-310.725 549.05 -309.075 544.1 -307.375 539 C-306.08372903 536.13987197 -304.87057911 533.55461633 -303.3125 530.875 C-302.93601318 530.21886719 -302.55952637 529.56273437 -302.17163086 528.88671875 C-290.51247133 509.43832843 -271.63327007 496.8045768 -250.375 490 C-249.385 490 -248.395 490 -247.375 490 C-247.87 437.53 -247.87 437.53 -248.375 384 C-252.665 382.68 -256.955 381.36 -261.375 380 C-264.58187496 378.48320088 -267.61505683 376.98230497 -270.6875 375.25 C-271.43966797 374.83878906 -272.19183594 374.42757813 -272.96679688 374.00390625 C-274.77538421 373.0132151 -276.57613037 372.00822872 -278.375 371 C-278.375 370.34 -278.375 369.68 -278.375 369 C-278.973125 368.71125 -279.57125 368.4225 -280.1875 368.125 C-282.375 367 -282.375 367 -285.375 365 C-285.375 364.34 -285.375 363.68 -285.375 363 C-285.95507812 362.75378906 -286.53515625 362.50757813 -287.1328125 362.25390625 C-294.21375324 358.29400733 -299.28680452 349.82144617 -303.375 343 C-304.02082031 341.93265625 -304.02082031 341.93265625 -304.6796875 340.84375 C-314.91103932 322.28750944 -316.96123009 298.18607048 -312.03442383 277.71240234 C-311.0464621 274.36100987 -309.80290501 271.18656768 -308.375 268 C-308.06916992 267.30165039 -307.76333984 266.60330078 -307.44824219 265.88378906 C-301.00806787 251.60838783 -291.57473999 238.69933924 -278.375 230 C-277.38886719 229.33484375 -276.40273438 228.6696875 -275.38671875 227.984375 C-254.31354319 214.35621356 -230.92933848 211.26730757 -206.61474609 216.44775391 C-183.72101545 222.09257827 -165.75276345 237.4830022 -153.375 257 C-150.18610537 262.51633432 -148.43747819 266.62513083 -147.375 273 C-81.705 273 -16.035 273 51.625 273 C53.11 268.05 53.11 268.05 54.625 263 C56.2734375 259.609375 56.2734375 259.609375 58 256.75 C58.60585938 255.74324219 59.21171875 254.73648437 59.8359375 253.69921875 C61.31996391 251.46021821 62.81301886 249.53138453 64.625 247.5625 C66.89008701 245.23779926 66.89008701 245.23779926 66.50390625 242.6953125 C65.40949095 239.33910558 63.71886345 237.10017973 61.5625 234.3125 C57.625 229.19859402 57.625 229.19859402 57.625 227 C56.965 227 56.305 227 55.625 227 C54.24617599 225.03108605 52.92125688 223.02422723 51.625 221 C50.14234672 219.0285009 48.64121349 217.07080731 47.125 215.125 C43.28966832 210.17792584 39.50090114 205.19889973 35.75 200.1875 C35.25226074 199.52250488 34.75452148 198.85750977 34.24169922 198.17236328 C33.222129 196.80955845 32.20276217 195.44660144 31.18359375 194.08349609 C28.54257192 190.55303239 25.89599049 187.02674039 23.25 183.5 C20.44171945 179.75578454 20.44171945 179.75578454 19.05175781 177.89453125 C18.02440733 176.53035607 16.98590744 175.17455175 15.94042969 173.82421875 C15.39032227 173.10878906 14.84021484 172.39335937 14.2734375 171.65625 C13.51426025 170.67881836 13.51426025 170.67881836 12.73974609 169.68164062 C11.625 168 11.625 168 11.625 166 C10.965 166 10.305 166 9.625 166 C7.9609375 163.98046875 7.9609375 163.98046875 6 161.1875 C5.29488281 160.19105469 4.58976563 159.19460937 3.86328125 158.16796875 C2.75533203 156.59982422 2.75533203 156.59982422 1.625 155 C-0.51522153 152.10093916 -2.65998226 149.20534678 -4.80859375 146.3125 C-6.375 144 -6.375 144 -7.375 141 C-8.4165625 141.53109375 -9.458125 142.0621875 -10.53125 142.609375 C-33.14181288 153.85749864 -55.67942467 156.89144115 -80.12109375 149.93359375 C-92.04456373 145.90593332 -102.35972391 140.59740245 -111.44921875 131.8203125 C-113.25080571 129.94151233 -113.25080571 129.94151233 -115.375 129 C-115.375 128.34 -115.375 127.68 -115.375 127 C-116.035 127 -116.695 127 -117.375 127 C-133.62326698 109.36247599 -141.16814847 86.93063425 -140.7109375 63.09375 C-139.79359171 43.56414046 -132.26036194 25.55711548 -119.375 11 C-118.59253906 10.0203125 -117.81007813 9.040625 -117.00390625 8.03125 C-88.22072742 -26.52166522 -33.59285656 -26.06518901 0 0 Z M93.9375 269.12890625 C86.12658936 280.35709029 82.30400053 292.27811803 83.625 306 C86.63792951 321.45838266 93.75516435 332.6408471 106.38671875 341.91015625 C117.46190718 349.0575939 131.18352495 350.65634963 144.0625 348.4375 C157.2093717 344.93327868 168.50892371 337.36918172 175.5 325.5625 C176.23353592 324.05366098 176.94193593 322.53234905 177.625 321 C178.01558594 320.23945313 178.40617188 319.47890625 178.80859375 318.6953125 C183.50878501 308.25405718 183.70669756 292.91113859 179.66796875 282.16015625 C172.95873069 268.26424371 163.83525216 258.15554883 149.0625 252.77734375 C129.01514704 246.38403728 107.26461358 252.31576528 93.9375 269.12890625 Z M-143.375 309 C-144.365 314.28 -145.355 319.56 -146.375 325 C-146.705 325.99 -147.035 326.98 -147.375 328 C-138.52512624 334.68912536 -129.63211028 341.29739344 -120.5859375 347.71875 C-114.36270484 352.14012211 -108.2018544 356.6452785 -102.06640625 361.1875 C-93.54304344 367.49390978 -84.98150881 373.72676454 -76.29833984 379.81152344 C-71.29080443 383.32893128 -66.39211092 386.97063311 -61.515625 390.66796875 C-57.76586924 393.45230231 -53.95061672 396.13388147 -50.125 398.8125 C-43.78827829 403.25159382 -37.5713603 407.8215378 -31.40429688 412.49267578 C-25.83891312 416.69138771 -20.15960423 420.71264246 -14.44921875 424.7109375 C-9.39008364 428.26071738 -4.44060558 431.93386463 0.484375 435.66796875 C4.23413076 438.45230231 8.04938328 441.13388147 11.875 443.8125 C17.53559071 447.77794055 23.1154711 451.82727187 28.625 456 C34.70765836 460.60353789 40.88246322 465.0514467 47.12890625 469.4296875 C51.56477535 472.5404518 55.97570733 475.68208835 60.36279297 478.86132812 C61.86233361 479.94754837 63.36394281 481.03091907 64.86767578 482.11132812 C68.72338819 484.88280513 72.54517863 487.68842054 76.328125 490.55859375 C77.84366576 491.68500918 79.35928782 492.81131525 80.875 493.9375 C81.5659375 494.47632813 82.256875 495.01515625 82.96875 495.5703125 C84.82747044 496.93508164 86.50276819 498.097739 88.625 499 C91.87611766 498.59355516 91.87611766 498.59355516 94.625 497 C95.34042969 496.69320312 96.05585937 496.38640625 96.79296875 496.0703125 C97.45941406 495.75835938 98.12585938 495.44640625 98.8125 495.125 C103.98328903 492.84179445 109.31287333 490.93168243 114.625 489 C114.625 454.35 114.625 419.7 114.625 384 C110.43847647 382.20577563 106.45622165 380.54037837 102.1875 379.0625 C86.87727546 373.5008266 72.74029176 363.66157193 63.625 350 C62.97402344 349.02933594 62.32304688 348.05867188 61.65234375 347.05859375 C53.67860246 334.67321241 50.57184147 323.73420734 47.625 309 C-15.405 309 -78.435 309 -143.375 309 Z M-167.375 360 C-168.035 360.680625 -168.695 361.36125 -169.375 362.0625 C-175.34223744 368.18450729 -182.6911529 372.34449231 -190.25 376.1875 C-190.87302002 376.50823486 -191.49604004 376.82896973 -192.13793945 377.15942383 C-198.13680966 380.12027239 -203.85370889 381.8262363 -210.375 384 C-210.375 418.65 -210.375 453.3 -210.375 489 C-203.775 491.31 -197.175 493.62 -190.375 496 C-183.41915253 499.66901845 -177.4634484 504.05166645 -171.375 509 C-170.34375 509.78375 -169.3125 510.5675 -168.25 511.375 C-156.06046315 522.50457713 -147.07714353 538.78713881 -144.375 555 C-80.355 555 -16.335 555 49.625 555 C51.605 548.565 51.605 548.565 53.625 542 C55.00528845 539.041177 56.37153552 536.22064661 57.9375 533.375 C59.27240944 530.93653458 60.47480663 528.5381528 61.625 526 C60.25299309 521.88397927 57.38300858 520.46415261 53.9375 518.125 C50.30440801 515.62653295 46.72751074 513.1446972 43.36328125 510.2890625 C40.91335587 508.2410507 38.50955776 506.80248326 35.72265625 505.27734375 C30.75906272 502.25482031 26.2352095 498.52746561 21.625 495 C14.26745832 489.37951701 6.81215606 483.99146591 -0.85644531 478.80517578 C-4.49320405 476.33731024 -7.95198598 473.76137713 -11.375 471 C-13.57910158 469.38009334 -15.81681196 467.81155431 -18.0625 466.25 C-18.64322266 465.83878906 -19.22394531 465.42757812 -19.82226562 465.00390625 C-22.81497431 462.72634189 -22.81497431 462.72634189 -26.375 462 C-26.375 461.34 -26.375 460.68 -26.375 460 C-28.34150259 458.42987059 -30.30644364 456.98800754 -32.375 455.5625 C-32.9927832 455.13018066 -33.61056641 454.69786133 -34.24707031 454.25244141 C-35.57984551 453.32189417 -36.91490566 452.39461301 -38.25195312 451.47021484 C-40.44049237 449.95464639 -42.61903973 448.4254326 -44.796875 446.89453125 C-46.23912807 445.88736859 -47.68182644 444.88084325 -49.125 443.875 C-49.8159375 443.38974854 -50.506875 442.90449707 -51.21875 442.40454102 C-54.49166087 439.87617981 -54.49166087 439.87617981 -58.375 439 C-58.375 438.34 -58.375 437.68 -58.375 437 C-60.79778904 435.14457295 -63.23126958 433.40471662 -65.75 431.6875 C-67.3183687 430.59991 -68.88605521 429.51133571 -70.453125 428.421875 C-71.26716797 427.85791016 -72.08121094 427.29394531 -72.91992188 426.71289062 C-76.81139431 423.99783786 -80.65710482 421.22070288 -84.5 418.4375 C-85.24685059 417.89746338 -85.99370117 417.35742676 -86.76318359 416.80102539 C-92.28139737 412.80551211 -97.77321112 408.77470436 -103.26098633 404.73754883 C-107.31715053 401.75946031 -111.41706615 398.85406151 -115.55078125 395.984375 C-121.7366984 391.63797678 -127.84170204 387.1771455 -133.96533203 382.74365234 C-136.35978825 381.01100733 -138.75575544 379.28047571 -141.15234375 377.55078125 C-141.92771484 376.99108643 -142.70308594 376.4313916 -143.50195312 375.85473633 C-145.02764723 374.75383132 -146.5536823 373.65339867 -148.08007812 372.5534668 C-151.3594576 370.18830544 -154.63285564 367.81700995 -157.87890625 365.40625 C-158.86761719 364.6740625 -159.85632813 363.941875 -160.875 363.1875 C-161.7103125 362.56230469 -162.545625 361.93710937 -163.40625 361.29296875 C-165.26105838 359.81701793 -165.26105838 359.81701793 -167.375 360 Z M-266.375 542 C-268.69253997 545.19761843 -270.60329243 548.4741846 -272.375 552 C-272.86613281 552.96099609 -272.86613281 552.96099609 -273.3671875 553.94140625 C-277.9026794 563.59552473 -277.96588114 577.60472656 -275.18359375 587.83203125 C-270.18496035 601.23416428 -260.77052007 612.16740398 -247.76171875 618.21484375 C-235.48145759 623.32707099 -220.84061881 624.129486 -208.375 619 C-195.1547254 612.57013917 -185.94963403 602.82254025 -180.2109375 589.24609375 C-176.28706288 576.94272987 -177.63650698 563.85356769 -182.375 552 C-184.08839237 548.72134716 -186.06254785 545.88081389 -188.375 543 C-188.89964844 542.30261719 -189.42429687 541.60523438 -189.96484375 540.88671875 C-194.31429341 535.45246517 -199.27479222 532.24869162 -205.375 529 C-206.365 528.4225 -207.355 527.845 -208.375 527.25 C-229.03029711 518.6436262 -251.71066764 525.9978689 -266.375 542 Z M95.625 541 C93.36995099 543.87566123 91.44707689 546.8356598 89.625 550 C89.068125 550.9075 88.51125 551.815 87.9375 552.75 C83.65092951 563.36436501 82.41495314 573.7797998 85.25 584.875 C85.42748779 585.57044922 85.60497559 586.26589844 85.7878418 586.98242188 C87.4351976 593.00432157 89.87832662 597.98036049 93.625 603 C94.14964844 603.71671875 94.67429687 604.4334375 95.21484375 605.171875 C102.46052975 614.241769 114.18971373 620.23165676 125.625 622 C141.16440008 622.93308176 153.0153659 619.78327113 165.8125 610.75 C166.410625 610.1725 167.00875 609.595 167.625 609 C167.625 608.34 167.625 607.68 167.625 607 C168.285 607 168.945 607 169.625 607 C178.53341286 596.48982818 181.78941722 586.22027646 181.875 572.6875 C181.895625 571.88376953 181.91625 571.08003906 181.9375 570.25195312 C182.01862829 557.64664551 176.44107569 547.34812824 167.98828125 538.328125 C157.95700377 528.44607314 147.28757319 524.07323976 133.25 523.6875 C117.741885 523.97941746 106.23331486 529.90456864 95.625 541 Z M-505.375 591 C-506.035 592.98 -506.695 594.96 -507.375 597 C-511.790637 609.73423405 -517.75621029 620.62601603 -526.375 631 C-523.77334806 635.77169341 -520.9389753 640.03476807 -517.5 644.25 C-513.04192628 649.81518356 -508.76644252 655.49075703 -504.5625 661.25 C-499.87216274 667.66625243 -495.09113667 673.99523774 -490.1875 680.25 C-485.51214627 686.21410609 -480.95066141 692.24009373 -476.49853516 698.37231445 C-471.91293043 704.67351255 -467.1679943 710.84968621 -462.41796875 717.02734375 C-459.37049019 720.99351115 -456.36737344 724.99215446 -453.375 729 C-448.46215827 727.82770809 -443.81232966 726.00055665 -439.078125 724.25390625 C-418.04738949 717.13273948 -394.90168967 719.66277474 -374.75 728.3125 C-373.63625 728.869375 -372.5225 729.42625 -371.375 730 C-365.52673664 722.79723423 -359.91404863 715.44220893 -354.375 708 C-352.87583156 705.9993766 -351.37583512 703.99937339 -349.875 702 C-349.12863281 701.00484375 -348.38226563 700.0096875 -347.61328125 698.984375 C-345.4296875 696.07291667 -343.24609375 693.16145833 -341.0625 690.25 C-340.31742188 689.25613281 -339.57234375 688.26226563 -338.8046875 687.23828125 C-337.08292106 684.94235609 -335.35843676 682.64849557 -333.6328125 680.35546875 C-328.13010955 673.03795605 -322.66888946 665.6923363 -317.25 658.3125 C-313.16193959 652.74555324 -309.03951029 647.21227518 -304.8125 641.75 C-304.03132812 640.73550781 -303.25015625 639.72101562 -302.4453125 638.67578125 C-301.17970847 637.04004774 -299.90567583 635.41073743 -298.6171875 633.79296875 C-296.0892913 630.78803854 -296.0892913 630.78803854 -295.5625 627.08984375 C-296.54587265 624.56049582 -297.90240448 622.77249663 -299.5625 620.625 C-306.04758264 611.5964866 -309.20183959 601.57720137 -312.375 591 C-376.065 591 -439.755 591 -505.375 591 Z M-144.375 591 C-145.035 593.97 -145.695 596.94 -146.375 600 C-147.48894558 602.85565427 -148.62031685 605.5595034 -149.9375 608.3125 C-150.27958496 609.04307617 -150.62166992 609.77365234 -150.97412109 610.52636719 C-153.89301013 616.52185201 -157.51350483 621.47041538 -161.8828125 626.484375 C-163.66891524 628.87154589 -163.66891524 628.87154589 -162.9453125 631.4140625 C-160.93756359 634.72035548 -158.59865775 637.6643173 -156.125 640.625 C-151.43434487 646.36214736 -146.93519323 652.2045628 -142.5625 658.1875 C-137.66439742 664.8844753 -132.73427325 671.55432777 -127.75 678.1875 C-127.12206543 679.02337646 -126.49413086 679.85925293 -125.84716797 680.72045898 C-124.61075235 682.3657388 -123.37410384 684.01084362 -122.13720703 685.65576172 C-119.00012742 689.82897292 -115.86919649 694.00679414 -112.73754883 698.18408203 C-110.20765234 701.55813479 -107.67565563 704.93058372 -105.140625 708.30078125 C-104.6046167 709.01395508 -104.0686084 709.72712891 -103.51635742 710.46191406 C-102.50157188 711.81203233 -101.4861617 713.16168144 -100.4699707 714.51074219 C-97.37480265 718.63045448 -94.35573291 722.79667973 -91.375 727 C-88.49038544 726.52559269 -85.96607135 725.84544828 -83.22265625 724.80859375 C-64.05660435 717.63330469 -40.30619098 718.33064758 -21.375 726 C-18.6752272 727.2789015 -16.02761485 728.62369873 -13.375 730 C-9.90799124 726.64876131 -6.85710212 723.21045652 -3.9375 719.375 C-3.51629883 718.82287842 -3.09509766 718.27075684 -2.66113281 717.7019043 C1.68314201 711.97996731 5.91262863 706.17306733 10.15869141 700.37817383 C14.89907052 693.93143765 19.77610366 687.60143231 24.70800781 681.30053711 C29.43320397 675.26241337 34.04956514 669.15257339 38.625 663 C42.70688986 657.52885853 46.84097903 652.10014646 51 646.6875 C55.97795524 640.19628057 60.86727855 633.65506052 65.625 627 C63.91289818 623.40019618 61.85826502 620.04373542 59.8125 616.625 C55.07793077 608.52857463 51.9039612 600.11584478 49.625 591 C-14.395 591 -78.415 591 -144.375 591 Z M-266.375 651 C-268.08598471 652.96241974 -269.67483096 654.93193775 -271.25 657 C-271.7361377 657.62865967 -272.22227539 658.25731934 -272.72314453 658.9050293 C-276.78339253 664.17478194 -280.77647853 669.49599727 -284.75366211 674.82861328 C-287.86429875 678.99839154 -291.00956779 683.1387337 -294.18383789 687.26025391 C-299.17520086 693.74131912 -304.05461832 700.28295367 -308.8125 706.9375 C-313.18194915 713.04563677 -317.67639386 719.02930732 -322.3125 724.9375 C-327.35326271 731.38583162 -332.37847196 737.84446638 -337.3125 744.375 C-338.24533813 745.57950806 -338.24533813 745.57950806 -339.19702148 746.80834961 C-339.75977783 747.55995361 -340.32253418 748.31155762 -340.90234375 749.0859375 C-341.40499756 749.7464209 -341.90765137 750.4069043 -342.42553711 751.08740234 C-343.57390907 752.96059001 -343.57390907 752.96059001 -343.12036133 755.08691406 C-342.0912397 757.72831501 -340.63573869 759.97752339 -339.125 762.375 C-334.50117647 770.11942872 -331.56229904 778.25080383 -329.375 787 C-266.015 787 -202.655 787 -137.375 787 C-136.385 783.37 -135.395 779.74 -134.375 776 C-130.9535664 766.22447543 -125.93081998 758.0078766 -119.375 750 C-121.11768207 746.03935893 -123.52174729 742.25563451 -126.375 739 C-127.035 739 -127.695 739 -128.375 739 C-128.49270752 738.40469482 -128.61041504 737.80938965 -128.73168945 737.19604492 C-129.76716403 733.66128446 -132.25793746 731.11297151 -134.5625 728.3125 C-138.43016328 723.52718153 -142.03360831 718.73224162 -145.25390625 713.4765625 C-145.80884766 712.74566406 -145.80884766 712.74566406 -146.375 712 C-147.035 712 -147.695 712 -148.375 712 C-148.60058594 711.31035156 -148.82617188 710.62070312 -149.05859375 709.91015625 C-150.68514718 706.31436305 -152.96132612 703.47049663 -155.4375 700.4375 C-156.43727678 699.18966571 -157.43595847 697.94095332 -158.43359375 696.69140625 C-158.93101074 696.07023926 -159.42842773 695.44907227 -159.94091797 694.80908203 C-163.52506665 690.28770959 -166.93136857 685.62853687 -170.375 681 C-171.8741641 678.99937335 -173.37416922 676.99937665 -174.875 675 C-177.18612389 671.91985065 -179.49606439 668.83885138 -181.80078125 665.75390625 C-182.58839844 664.70074219 -183.37601563 663.64757812 -184.1875 662.5625 C-184.89519531 661.61503906 -185.60289062 660.66757812 -186.33203125 659.69140625 C-188.30497231 657.09225445 -190.32484006 654.53851264 -192.375 652 C-198.15942411 653.23274612 -203.8289163 654.64932397 -209.50390625 656.31640625 C-226.8218875 660.43973512 -245.14707686 658.34578577 -261.57421875 652.0234375 C-264.19110025 650.88559494 -264.19110025 650.88559494 -266.375 651 Z M-450.375 773 C-460.80990928 785.37768509 -462.63901209 797.65607393 -461.64990234 813.4375 C-460.6643519 822.62430056 -456.27559548 830.07177272 -450.375 837 C-449.776875 837.86625 -449.17875 838.7325 -448.5625 839.625 C-445.30311503 843.16376083 -441.47424074 845.52266252 -437.375 848 C-436.75753906 848.38414062 -436.14007813 848.76828125 -435.50390625 849.1640625 C-424.68449894 855.26015866 -412.10431986 856.20954106 -400.2421875 853.20703125 C-386.86490733 849.09997155 -376.06345339 841.11294911 -368.8828125 828.97265625 C-362.03987041 815.48177819 -361.45942271 801.59040896 -366.0390625 787.234375 C-371.626584 773.70669136 -383.54419626 763.53581624 -396.82421875 757.93359375 C-416.03314383 750.90306834 -437.00485229 758.67980714 -450.375 773 Z M-90.6953125 771.40625 C-101.57003898 783.89603487 -104.34016997 796.57785333 -103.59716797 812.62792969 C-102.35668802 825.87243872 -93.53288373 836.49412338 -84 844.9921875 C-74.74374084 852.07212382 -62.81613744 855.66939935 -51.125 855 C-35.16501411 852.76997457 -22.88180418 845.82065492 -12.91015625 833.13671875 C-5.30433422 821.9707247 -3.7761331 809.16269974 -5.375 796 C-7.49018332 785.6534697 -12.45999444 776.01557311 -20.375 769 C-21.31279297 768.16662109 -21.31279297 768.16662109 -22.26953125 767.31640625 C-42.64846323 750.24216594 -72.41322876 752.44705205 -90.6953125 771.40625 Z " fill="#000000" transform="translate(738.375,77)"/>
<path d="M0 0 C0.85078125 0.48339844 1.7015625 0.96679688 2.578125 1.46484375 C19.70471724 12.09195584 33.04723187 29.61794224 38.34375 49.1015625 C41.66453724 63.76837281 42.75872769 76.09935616 40 91 C39.82855469 91.969375 39.65710938 92.93875 39.48046875 93.9375 C35.30993078 113.74082869 22.00557949 133.32204817 5.24609375 144.65234375 C-17.04476181 158.79813329 -40.41031294 162.67779434 -66 157 C-82.58143336 153.26035758 -97.57476776 143.46775809 -109 131 C-109 130.34 -109 129.68 -109 129 C-109.99 128.67 -110.98 128.34 -112 128 C-112.6875 125.9375 -112.6875 125.9375 -113 124 C-113.66 124 -114.32 124 -115 124 C-128.63171424 105.93098288 -131.96070741 82.94193481 -130 61 C-127.73106258 45.3160066 -120.4015025 29.88743143 -110 18 C-109.48179687 17.34 -108.96359375 16.68 -108.4296875 16 C-82.31646126 -16.29461795 -34.21194945 -19.59684473 0 0 Z " fill="#000000" transform="translate(370,71)"/>
<path d="M0 0 C3.14270783 2.52262198 6.24857484 5.04919621 9 8 C9 8.66 9 9.32 9 10 C9.66 10 10.32 10 11 10 C20.43543933 21.94257036 22.33740417 36.31084415 21 51 C19.19683479 62.23758317 11.22192032 74.04690029 2.4140625 81.05859375 C-10.90626756 90.58560147 -24.93226323 92.8556176 -41 91 C-45.43112613 89.90040693 -49.08175601 88.32033511 -53 86 C-53.804375 85.54238281 -54.60875 85.08476562 -55.4375 84.61328125 C-66.68335309 77.67960494 -73.70177123 68.18634188 -78.1640625 55.7578125 C-81.18098964 42.19573817 -80.35217179 27.93554696 -73 16 C-63.5960397 2.01015782 -52.42348966 -4.21388753 -36.5625 -8.6875 C-23.52295214 -10.27768876 -10.60887299 -7.97886762 0 0 Z " fill="#00DCCF" transform="translate(714,103)"/>
<path d="M0 0 C12.37388994 7.42116928 21.34765153 17.92356166 25.57592773 31.90429688 C26.39852626 35.9694585 26.18464191 40.11720863 26.1875 44.25 C26.19974609 45.16652344 26.21199219 46.08304688 26.22460938 47.02734375 C26.25321432 60.39538859 21.11889171 71.36533203 12.0078125 81.19140625 C-0.60244274 92.5504494 -14.25679799 95.85274619 -30.7421875 95.17480469 C-44.79695517 94.08665442 -54.85039799 86.09304862 -63.80078125 75.8359375 C-73.4500339 63.39302911 -74.22746265 49.16836974 -73 34 C-70.64096422 22.00376689 -62.31745065 12.14196591 -53.75 3.8125 C-37.62913233 -6.81261733 -17.3508446 -8.97982308 0 0 Z " fill="#00DCCF" transform="translate(173,605)"/>
<path d="M0 0 C10.65700551 8.77140579 16.46360633 19.48217467 19 33 C20.32644164 48.81781652 16.01155293 61.73439678 5.83203125 74.04296875 C-3.87104554 84.40808916 -17.2602731 89.83886675 -31.25 90.375 C-46.40862976 90.14424802 -59.26131603 83.2301669 -70 73 C-78.02085359 63.71269584 -81.98333828 52.16305601 -82 40 C-82.01160156 39.20335937 -82.02320313 38.40671875 -82.03515625 37.5859375 C-81.58773502 26.88362179 -76.60341489 13.63683486 -69.03515625 6.0234375 C-68.38417969 5.47945313 -67.73320312 4.93546875 -67.0625 4.375 C-66.36382812 3.78847656 -65.66515625 3.20195312 -64.9453125 2.59765625 C-64.30335938 2.07042969 -63.66140625 1.54320312 -63 1 C-62.154375 0.278125 -61.30875 -0.44375 -60.4375 -1.1875 C-42.16624484 -14.77381794 -18.34234501 -12.53533167 0 0 Z " fill="#00DCCF" transform="translate(542,337)"/>
<path d="M0 0 C9.55912404 7.74541777 16.15482047 17.77646855 18 30 C19.43635667 46.68262982 16.81278873 60.32328193 5.89453125 73.55078125 C-4.2307443 84.21368205 -16.73896233 90.04394322 -31.5 90.5 C-44.77492908 90.10312068 -57.18821976 85.18134358 -67.015625 76.21875 C-79.09972694 62.70739192 -81.97419481 48.01126679 -81.23535156 30.51806641 C-80.72870513 25.09737008 -78.65340987 20.67247685 -76 16 C-75.443125 14.80375 -74.88625 13.6075 -74.3125 12.375 C-67.73026254 1.44042593 -56.99341349 -5.53378959 -45 -9 C-28.20511881 -11.95698138 -14.00178907 -9.82615293 0 0 Z " fill="#00DCCF" transform="translate(181,337)"/>
<path d="M0 0 C4.23294548 3.43517517 8.14784588 7.14784588 12 11 C12 11.99 12 12.98 12 14 C13.485 14.495 13.485 14.495 15 15 C19.97415891 23.18134167 21.55996983 31.35641444 21.5625 40.8125 C21.56467529 41.67069336 21.56685059 42.52888672 21.5690918 43.41308594 C21.23791474 56.33767374 16.16963203 67.9351872 7.3125 77.3125 C-2.83665079 86.91304804 -16.30102072 92.46628365 -30.32421875 92.20703125 C-44.45571141 91.11364569 -56.11316048 86.01947406 -65.89453125 75.66796875 C-76.89723224 61.72577065 -79.49281627 48.51487981 -78 31 C-75.78676572 18.06468078 -66.26568229 6.6539186 -56 -1 C-39.3352171 -11.82214985 -16.42521894 -10.5131683 0 0 Z " fill="#00DCCF" transform="translate(354,103)"/>
<path d="M0 0 C4.14591767 2.34228026 6.8743242 5.06204734 8.8125 9.4375 C10.45700373 15.79080014 10.20261971 20.67429649 6.8125 26.4375 C3.34206174 30.4559022 -0.04456365 33.94267784 -5.4453125 34.79296875 C-11.91460149 35.15896828 -16.32576772 33.74905934 -21.1875 29.4375 C-24.94052189 24.62593347 -26.57424743 20.78906013 -26.4609375 14.625 C-25.87545643 9.94115142 -23.95023661 6.05601271 -20.46875 2.859375 C-14.10811949 -1.83024241 -7.39447135 -3.27709526 0 0 Z " fill="#000000" transform="translate(399.1875,350.5625)"/>
<path d="M0 0 C5.87514646 2.48563889 9.40993583 6.59106818 11.90625 12.421875 C12.893624 17.40431609 12.57282165 21.76310738 10.21875 26.296875 C6.72643754 31.01621616 2.5577343 34.76599526 -3.35546875 35.828125 C-9.42592491 36.062732 -13.30013051 34.92924364 -18.17578125 31.26171875 C-22.18875867 27.41220273 -23.75366002 23.4624149 -24.65625 18.046875 C-23.78002203 12.40007253 -21.81956698 6.656343 -17.2734375 2.9296875 C-15.40625 1.859375 -15.40625 1.859375 -12.09375 0.421875 C-8.27255041 -1.48872479 -4.02279437 -1.11077158 0 0 Z " fill="#000000" transform="translate(337.09375,349.578125)"/>
<path d="M0 0 C4.90507355 2.65380879 6.78851497 4.74553841 8.8125 9.9375 C10.49347829 15.83276188 9.78745196 20.58488373 6.8125 25.9375 C3.23309423 30.29083134 -0.62243811 33.40306659 -6.32421875 34.2578125 C-11.91295448 34.54246797 -15.81833854 33.44590397 -20.1875 29.9375 C-24.39836207 25.82021264 -26.95068229 21.85794271 -27.1875 15.9375 C-26.22704549 10.51908681 -24.22031509 5.75232508 -20.1875 1.9375 C-13.30235213 -2.63255448 -7.67239782 -3.39248044 0 0 Z " fill="#000000" transform="translate(280.1875,351.0625)"/>
<path d="M0 0 C5.45531198 2.58409515 8.77197878 6.36852595 11.3125 11.8125 C12.61272294 17.84080637 11.65084481 23.22865292 8.34765625 28.390625 C5.1493834 32.21001171 1.45962691 34.55492466 -3.4609375 35.4453125 C-9.34790344 35.71701862 -14.31093713 34.67015342 -19 31 C-22.87600716 26.9919634 -24.33299213 23.04046507 -24.625 17.5 C-24.27280966 10.44641013 -21.36740214 6.36740214 -16.5 1.5 C-11.05767764 -0.83242387 -5.82796776 -0.73499211 0 0 Z " fill="#000000" transform="translate(572,122)"/>
<path d="M0 0 C4.84916362 2.64585432 8.0999607 6.04988209 9.875 11.375 C10.60988402 18.26604359 10.03796991 22.78785617 5.875 28.375 C1.76511132 32.50635024 -1.90117965 34.50613322 -7.75 34.8125 C-13.79264843 34.75056949 -17.7491948 32.42701411 -22.125 28.375 C-25.58810294 23.18034559 -26.44012764 18.5808935 -25.5625 12.4375 C-23.80897141 6.33522051 -20.1388855 2.5100991 -14.6875 -0.5625 C-9.23559963 -2.18850537 -5.20068916 -2.33201634 0 0 Z " fill="#000000" transform="translate(358.125,473.625)"/>
<path d="M0 0 C4.46876455 3.07848225 8.07974831 6.73924494 9.8125 11.9375 C10.34672104 17.90639281 10.34556722 22.87343698 6.8125 27.9375 C2.28480949 32.2683344 -1.28042097 34.60839671 -7.5 35.3125 C-13.51294896 34.70101366 -18.14427484 32.475204 -22.125 27.875 C-25.75287906 22.70802073 -25.55971645 18.03989066 -25.1875 11.9375 C-23.82606563 6.36799577 -20.11789834 3.209808 -15.4375 0.125 C-10.07653866 -1.8338128 -5.40644218 -1.80214739 0 0 Z " fill="#000000" transform="translate(449.1875,259.0625)"/>
<path d="M0 0 C4.65272951 4.42270693 7.10830876 8.15356461 7.375 14.6875 C7.30172459 20.26457256 5.73063213 23.88016706 2 28 C-1.80951469 31.50277454 -5.45430654 32.26422342 -10.5625 32.4375 C-16.8573925 32.17054833 -20.34702487 30.72811037 -24.75 26.125 C-28.63715838 20.72616892 -29.48549104 17.14839641 -28.6796875 10.57421875 C-27.22184952 5.05286684 -23.66654085 1.11102723 -19 -2 C-12.13649134 -3.90653018 -6.2328286 -3.51304885 0 0 Z " fill="#000000" transform="translate(264,545)"/>
<path d="M0 0 C4.44221763 2.58713424 7.48510362 5.37107592 9.7109375 10.08984375 C11.2346951 16.48116035 11.12074158 21.29317682 7.7109375 27.08984375 C3.68761873 31.87433093 -0.30983919 34.6315017 -6.5390625 35.58984375 C-12.2562131 34.827557 -17.81652696 32.81481093 -21.78125 28.4453125 C-24.68666126 23.7478775 -25.77038858 19.03796601 -24.8828125 13.6015625 C-23.36340394 7.49679596 -21.55257338 4.52723861 -16.2890625 1.08984375 C-11.21301418 -1.85112445 -5.47773233 -2.1780062 0 0 Z " fill="#000000" transform="translate(580.2890625,258.91015625)"/>
<path d="M0 0 C4.44182023 2.58690279 7.68560352 5.27967555 9.7109375 10.08984375 C10.47719743 16.16154144 11.14282498 22.82148394 7.7734375 28.21484375 C3.65939921 32.81837102 -1.83721887 34.69579745 -7.7890625 35.65234375 C-13.21840665 34.77977058 -17.97025906 32.65005686 -21.71484375 28.515625 C-24.91435542 23.5243868 -25.96896688 17.73125473 -24.8828125 11.9140625 C-23.01403873 6.00740256 -19.71539731 3.08912777 -14.39453125 -0.015625 C-9.81704022 -1.96042174 -4.59824786 -1.82831357 0 0 Z " fill="#000000" transform="translate(222.2890625,258.91015625)"/>
<path d="M0 0 C4.41453335 2.53394214 7.0104411 5.72020284 8.75 10.5 C9.76410387 16.21056852 9.48470136 20.95752317 6.5 26 C3.48334197 30.15534021 0.81764057 32.45746214 -4.25 33.5 C-10.23004699 34.01313935 -15.17076848 34.0436499 -20.25 30.5 C-24.8181256 26.13951647 -27.018267 21.89372414 -27.25 15.5 C-26.31580463 10.07990425 -24.28602165 5.31179823 -20.25 1.5 C-13.64667287 -2.25483308 -7.02501314 -2.97670048 0 0 Z " fill="#000000" transform="translate(407.25,439.5)"/>
<path d="M0 0 C4.68039834 3.084808 8.38856563 6.24299577 9.75 11.8125 C10.40885359 17.67122882 10.1871646 22.85924153 7.20703125 28.05078125 C3.95638346 31.98118917 -0.37912172 34.20385226 -5.33203125 35.25390625 C-10.6493399 35.57902769 -14.97991907 33.78695808 -19.25 30.8125 C-23.87812468 26.52804794 -25.09795708 23.13115449 -25.5 17 C-25.40988099 12.15159736 -24.27400878 7.95556812 -20.85546875 4.3359375 C-14.37116769 -1.2783181 -8.1726706 -2.98616811 0 0 Z " fill="#000000" transform="translate(309.25,508.1875)"/>
<path d="M0 0 C5.44196368 2.62380392 8.76949433 6.36320214 11.3125 11.8125 C12.6696101 18.1045559 11.46517931 23.55471822 8 29 C2.74758468 33.84838337 -1.33299113 35.4792362 -8.3984375 35.3125 C-13.92423066 34.64874106 -17.64122314 32.42845773 -21.4375 28.4375 C-23.82667231 23.18132092 -24.76679487 17.6304005 -23.55859375 11.91015625 C-21.73250967 7.14146812 -18.51677972 3.56270637 -14.20703125 0.88671875 C-9.69483574 -0.92614564 -4.76304744 -0.51716735 0 0 Z " fill="#000000" transform="translate(512,122)"/>
<path d="M0 0 C6.37886598 5.07409794 6.37886598 5.07409794 7.75 9.1875 C8.90767828 21.42581324 8.90767828 21.42581324 5.5625 26.3125 C1.28090425 31.19884091 -3.22940508 32.95953057 -9.5625 33.4375 C-14.68716127 33.09006534 -18.44570876 31.59083763 -22.5 28.4375 C-26.07927505 23.83557493 -27.85293318 19.12264045 -27.6015625 13.23828125 C-26.74615512 8.24840484 -24.4325725 4.40203392 -20.9375 0.8125 C-13.88561485 -3.45143055 -7.14470935 -3.98454945 0 0 Z " fill="#000000" transform="translate(618.25,212.8125)"/>
<path d="M0 0 C3.90598067 3.27012335 7.44719895 6.61850658 7.92578125 11.859375 C8.17506822 22.40815008 8.17506822 22.40815008 3.6875 27.25 C-0.51999327 31.46902065 -3.63528701 33.13528625 -9.56640625 33.3203125 C-15.8536437 33.14753346 -19.17806062 31.42618146 -23.71875 27.13671875 C-27.56601783 22.58223257 -27.6900742 18.75357632 -27.55859375 12.9375 C-27.08153701 7.72773747 -25.17533941 5.0936652 -21.5 1.5 C-14.46603316 -3.46515306 -7.62307234 -4.0272835 0 0 Z " fill="#000000" transform="translate(260.3125,212.75)"/>
<path d="M0 0 C6.37886598 5.07409794 6.37886598 5.07409794 7.75 9.1875 C8.69499637 21.78139387 8.69499637 21.78139387 4.75 27.1875 C3.76 27.5175 2.77 27.8475 1.75 28.1875 C1.75 28.8475 1.75 29.5075 1.75 30.1875 C-3.67971425 32.77848532 -8.47133421 34.93075414 -14.5 33.4375 C-19.8454994 31.35727376 -23.51323629 28.24510588 -26.25 23.1875 C-28.22101866 16.16127805 -27.31417095 10.68354241 -24.25 4.1875 C-23.59 4.1875 -22.93 4.1875 -22.25 4.1875 C-22.00507813 3.56488281 -21.76015625 2.94226563 -21.5078125 2.30078125 C-19.57704173 -0.94315349 -17.18905915 -1.31415126 -13.69140625 -2.3359375 C-8.52253086 -3.34490198 -4.65988073 -2.59877964 0 0 Z " fill="#000000" transform="translate(415.25,212.8125)"/>
<path d="M0 0 C4.86750277 2.03563773 7.94000262 5.08989148 10 9.9375 C11.51608223 15.11580683 11.48650851 19.36876558 9.9375 24.5625 C7.12001072 29.56127131 3.49650504 33.16783165 -2 35 C-8.47167763 35.80464908 -13.02636141 35.18456263 -18.375 31.3671875 C-21.39246848 28.828452 -22.75936814 26.72189557 -24 23 C-24.5079081 16.77812579 -24.75354356 11.25496099 -21 6 C-14.50109071 -0.3602659 -8.93275075 -1.07485202 0 0 Z " fill="#000000" transform="translate(453,122)"/>
<path d="M0 0 C0.66 0.33 1.32 0.66 2 1 C-1.96 4.96 -5.92 8.92 -10 13 C-10.33 12.34 -10.66 11.68 -11 11 C-7.6189962 6.86378916 -4.33409466 3.18683431 0 0 Z " fill="#00B7AC" transform="translate(481,336)"/>
</svg>
