<svg version="1.1" id="Layer_1" xmlns="http://www.w3.org/2000/svg" xmlns:xlink="http://www.w3.org/1999/xlink" x="0px" y="0px"
	 width="100%" viewBox="0 0 800 600" enable-background="new 0 0 800 600" xml:space="preserve">
<path fill="#000000" opacity="1.000000" stroke="none" 
	d="
M389.000000,601.000000 
	C259.706970,601.000000 130.413940,601.000000 1.060453,601.000000 
	C1.060453,401.102631 1.060453,201.205261 1.060453,1.000000 
	C129.357254,1.000000 257.714752,1.000000 386.855286,1.300977 
	C384.713715,2.931357 381.670563,4.050843 378.883820,5.624501 
	C361.838715,15.249854 344.820587,24.924019 327.854370,34.687786 
	C311.592773,44.046047 295.437225,53.588505 279.174896,62.945477 
	C266.449554,70.267349 253.598328,77.370316 240.864197,84.677147 
	C224.488373,94.073593 208.093307,103.441132 191.857681,113.075836 
	C178.401428,121.061172 164.804459,128.893860 151.939072,137.764786 
	C140.831558,145.423630 135.144913,157.089600 135.111511,170.501999 
	C134.894699,257.615692 134.874390,344.730743 135.258026,431.843292 
	C135.286301,438.266663 138.986298,444.673920 141.112488,451.402893 
	C146.048111,456.871521 150.127441,463.086792 155.805313,466.956726 
	C167.203568,474.725525 179.442337,481.269318 191.393951,488.215942 
	C204.783630,495.998383 218.228226,503.686615 231.669678,511.379578 
	C244.119827,518.505249 256.621307,525.541443 269.056488,532.693054 
	C283.163208,540.805969 297.228638,548.990967 311.298615,557.167603 
	C325.106110,565.191711 338.780090,573.454285 352.731628,581.218811 
	C363.912537,587.441345 375.429260,593.059692 386.769135,598.999268 
	C387.626801,599.448486 388.261597,600.323120 389.000000,601.000000 
z"/>
<path fill="#000000" opacity="1.000000" stroke="none" 
	d="
M415.000000,0.999994 
	C543.626587,1.000000 672.253113,1.000000 800.939819,1.000000 
	C800.939819,200.897568 800.939819,400.795166 800.939819,601.000000 
	C671.976074,601.000000 542.951904,601.000000 413.447449,600.627563 
	C418.910522,597.531616 425.065277,595.186951 430.756287,592.011230 
	C445.843414,583.592102 460.739899,574.830688 475.694458,566.174805 
	C506.907593,548.108093 538.094360,529.995850 569.320435,511.951630 
	C593.989868,497.696167 618.799500,483.679840 643.335327,469.198761 
	C650.690125,464.857941 657.308411,459.287109 661.370178,450.969147 
	C663.797119,443.119843 667.723633,435.473755 667.763489,427.807434 
	C668.202881,343.408722 668.109985,259.006714 667.923035,174.606110 
	C667.904602,166.282516 666.289795,157.967438 661.005249,150.587006 
	C657.083313,142.999298 651.744873,137.167740 644.572205,133.054581 
	C638.912659,129.809113 633.321106,126.445427 627.675964,123.174591 
	C611.443848,113.769547 595.217590,104.354263 578.954895,95.002228 
	C566.225830,87.682205 553.422791,80.490868 540.694458,73.169586 
	C524.434021,63.816696 508.215851,54.390446 491.979279,44.996094 
	C478.150146,36.994671 464.421204,28.812960 450.459351,21.050234 
	C439.523956,14.970199 428.285309,9.436926 417.230621,3.567953 
	C416.296051,3.071795 415.734741,1.872587 415.000000,0.999994 
z"/>
<path fill="#5C8DBC" opacity="1.000000" stroke="none" 
	d="
M414.531342,0.999994 
	C415.734741,1.872587 416.296051,3.071795 417.230621,3.567953 
	C428.285309,9.436926 439.523956,14.970199 450.459351,21.050234 
	C464.421204,28.812960 478.150146,36.994671 491.979279,44.996094 
	C508.215851,54.390446 524.434021,63.816696 540.694458,73.169586 
	C553.422791,80.490868 566.225830,87.682205 578.954895,95.002228 
	C595.217590,104.354263 611.443848,113.769547 627.675964,123.174591 
	C633.321106,126.445427 638.912659,129.809113 644.572205,133.054581 
	C651.744873,137.167740 657.083313,142.999298 660.663940,150.679871 
	C631.953857,167.481079 603.589294,183.895599 575.126953,200.138748 
	C568.260498,204.057343 561.070190,207.408478 553.707275,210.895386 
	C552.564331,209.517578 551.723572,208.277084 550.923950,207.010605 
	C501.795898,129.193085 403.320343,101.763901 321.166351,143.017563 
	C248.811829,179.350388 210.299103,262.146759 228.915726,340.886383 
	C232.895279,357.718018 239.554016,373.408875 247.060883,388.948730 
	C218.539520,405.470062 190.280090,421.714996 162.088058,438.076050 
	C154.941498,442.223511 148.009750,446.741119 140.979309,451.088623 
	C138.986298,444.673920 135.286301,438.266663 135.258026,431.843292 
	C134.874390,344.730743 134.894699,257.615692 135.111511,170.501999 
	C135.144913,157.089600 140.831558,145.423630 151.939072,137.764786 
	C164.804459,128.893860 178.401428,121.061172 191.857681,113.075836 
	C208.093307,103.441132 224.488373,94.073593 240.864197,84.677147 
	C253.598328,77.370316 266.449554,70.267349 279.174896,62.945477 
	C295.437225,53.588505 311.592773,44.046047 327.854370,34.687786 
	C344.820587,24.924019 361.838715,15.249854 378.883820,5.624501 
	C381.670563,4.050843 384.713715,2.931357 387.319183,1.300977 
	C396.020905,1.000000 405.041779,1.000000 414.531342,0.999994 
z"/>
<path fill="#1A4674" opacity="1.000000" stroke="none" 
	d="
M141.112488,451.402893 
	C148.009750,446.741119 154.941498,442.223511 162.088058,438.076050 
	C190.280090,421.714996 218.539520,405.470062 247.315842,389.166290 
	C248.566422,390.276428 249.287781,391.394562 249.981934,392.529297 
	C304.376801,481.451630 422.829498,504.764679 506.092255,442.969879 
	C525.611816,428.483154 541.240967,410.530273 554.341614,389.933716 
	C561.613342,393.499237 568.632080,396.810333 575.349060,400.649445 
	C599.424133,414.409698 623.421204,428.307129 647.387817,442.255737 
	C652.084106,444.988953 656.512756,448.181976 661.064880,451.162933 
	C657.308411,459.287109 650.690125,464.857941 643.335327,469.198761 
	C618.799500,483.679840 593.989868,497.696167 569.320435,511.951630 
	C538.094360,529.995850 506.907593,548.108093 475.694458,566.174805 
	C460.739899,574.830688 445.843414,583.592102 430.756287,592.011230 
	C425.065277,595.186951 418.910522,597.531616 412.983582,600.627563 
	C405.312408,601.000000 397.624847,601.000000 389.468628,601.000000 
	C388.261597,600.323120 387.626801,599.448486 386.769135,598.999268 
	C375.429260,593.059692 363.912537,587.441345 352.731628,581.218811 
	C338.780090,573.454285 325.106110,565.191711 311.298615,557.167603 
	C297.228638,548.990967 283.163208,540.805969 269.056488,532.693054 
	C256.621307,525.541443 244.119827,518.505249 231.669678,511.379578 
	C218.228226,503.686615 204.783630,495.998383 191.393951,488.215942 
	C179.442337,481.269318 167.203568,474.725525 155.805313,466.956726 
	C150.127441,463.086792 146.048111,456.871521 141.112488,451.402893 
z"/>
<path fill="#1B598E" opacity="1.000000" stroke="none" 
	d="
M661.370178,450.969147 
	C656.512756,448.181976 652.084106,444.988953 647.387817,442.255737 
	C623.421204,428.307129 599.424133,414.409698 575.349060,400.649445 
	C568.632080,396.810333 561.613342,393.499237 554.331421,389.577911 
	C552.646851,388.086365 551.505920,386.719360 550.059570,385.876251 
	C531.033813,374.785919 511.984955,363.734558 492.893524,352.757599 
	C487.761444,349.806854 482.466675,347.139038 477.004944,344.071381 
	C462.205231,335.216339 447.624268,326.669647 433.096802,318.032990 
	C422.990448,312.024719 412.957550,305.892914 403.105164,299.558014 
	C410.922791,294.849426 418.522217,290.390778 426.132446,285.950531 
	C443.076416,276.064392 460.025757,266.187439 477.335510,256.242096 
	C501.963196,242.240982 526.237610,228.320572 550.469055,214.325867 
	C551.835999,213.536423 552.850281,212.136383 554.028748,211.020569 
	C561.070190,207.408478 568.260498,204.057343 575.126953,200.138748 
	C603.589294,183.895599 631.953857,167.481079 660.695618,151.036621 
	C666.289795,157.967438 667.904602,166.282516 667.923035,174.606110 
	C668.109985,259.006714 668.202881,343.408722 667.763489,427.807434 
	C667.723633,435.473755 663.797119,443.119843 661.370178,450.969147 
M625.364502,270.178162 
	C621.111816,270.178162 616.859131,270.178162 612.067383,270.178162 
	C612.067383,277.323303 612.067383,283.727844 612.067383,290.662537 
	C605.114807,290.662537 598.706726,290.662537 592.407837,290.662537 
	C592.407837,297.621918 592.407837,304.017334 592.407837,310.967529 
	C599.163940,310.967529 605.557861,310.967529 612.473267,310.967529 
	C612.473267,317.928345 612.473267,324.331635 612.473267,330.604370 
	C619.419434,330.604370 625.808289,330.604370 632.784180,330.604370 
	C632.784180,323.851166 632.784180,317.466644 632.784180,310.541809 
	C639.770569,310.541809 646.167603,310.541809 652.448303,310.541809 
	C652.448303,303.587189 652.448303,297.207611 652.448303,290.235870 
	C645.674194,290.235870 639.280518,290.235870 632.345215,290.235870 
	C632.345215,283.235565 632.345215,276.831299 632.345215,270.178162 
	C629.951172,270.178162 628.131409,270.178162 625.364502,270.178162 
M558.887207,286.428497 
	C558.887207,281.166748 558.887207,275.905029 558.887207,270.487671 
	C551.839233,270.487671 545.458496,270.487671 538.494995,270.487671 
	C538.494995,277.173035 538.494995,283.568390 538.494995,290.530396 
	C531.521912,290.530396 525.117981,290.530396 518.583191,290.530396 
	C518.583191,297.511261 518.583191,303.899750 518.583191,310.808594 
	C525.300049,310.808594 531.711304,310.808594 538.628601,310.808594 
	C538.628601,317.736969 538.628601,324.154022 538.628601,330.691406 
	C545.554321,330.691406 551.956360,330.691406 558.902222,330.691406 
	C558.902222,324.025970 558.902222,317.626404 558.902222,310.698364 
	C565.830811,310.698364 572.230652,310.698364 578.767456,310.698364 
	C578.767456,303.748230 578.767456,297.351807 578.767456,290.444092 
	C573.197815,290.444092 567.906006,290.408905 562.615173,290.461121 
	C560.451294,290.482452 558.474915,290.464478 558.887207,286.428497 
z"/>
<path fill="#FEFEFF" opacity="1.000000" stroke="none" 
	d="
M477.246582,344.341309 
	C482.466675,347.139038 487.761444,349.806854 492.893524,352.757599 
	C511.984955,363.734558 531.033813,374.785919 550.059570,385.876251 
	C551.505920,386.719360 552.646851,388.086365 553.939941,389.565674 
	C541.240967,410.530273 525.611816,428.483154 506.092255,442.969879 
	C422.829498,504.764679 304.376801,481.451630 249.981934,392.529297 
	C249.287781,391.394562 248.566422,390.276428 247.602783,388.932983 
	C239.554016,373.408875 232.895279,357.718018 228.915726,340.886383 
	C210.299103,262.146759 248.811829,179.350388 321.166351,143.017563 
	C403.320343,101.763901 501.795898,129.193085 550.923950,207.010605 
	C551.723572,208.277084 552.564331,209.517578 553.707275,210.895370 
	C552.850281,212.136383 551.835999,213.536423 550.469055,214.325867 
	C526.237610,228.320572 501.963196,242.240982 477.187439,255.921173 
	C454.442657,221.355759 418.106384,206.196869 379.804077,215.251129 
	C343.857147,223.748611 317.048798,255.054016 313.504028,293.339752 
	C311.838043,311.333313 315.204041,328.461334 324.929993,344.394287 
	C339.478455,369.182892 360.842438,383.502533 388.837219,387.904236 
	C423.677185,393.382172 461.576874,374.651642 477.246582,344.341309 
z"/>
<path fill="#5C8DBC" opacity="1.000000" stroke="none" 
	d="
M324.864838,344.047241 
	C315.204041,328.461334 311.838043,311.333313 313.504028,293.339752 
	C317.048798,255.054016 343.857147,223.748611 379.804077,215.251129 
	C418.106384,206.196869 454.442657,221.355759 476.824860,255.985840 
	C460.025757,266.187439 443.076416,276.064392 426.132446,285.950531 
	C418.522217,290.390778 410.922791,294.849426 402.762909,299.653229 
	C399.719666,301.324097 397.191956,302.571594 394.750488,303.969666 
	C371.446930,317.314301 348.157990,330.684418 324.864838,344.047241 
z"/>
<path fill="#1B4775" opacity="1.000000" stroke="none" 
	d="
M324.929993,344.394287 
	C348.157990,330.684418 371.446930,317.314301 394.750488,303.969666 
	C397.191956,302.571594 399.719666,301.324097 402.549622,299.911499 
	C412.957550,305.892914 422.990448,312.024719 433.096802,318.032990 
	C447.624268,326.669647 462.205231,335.216339 477.004944,344.071381 
	C461.576874,374.651642 423.677185,393.382172 388.837219,387.904236 
	C360.842438,383.502533 339.478455,369.182892 324.929993,344.394287 
z"/>
<path fill="#F6F9FB" opacity="1.000000" stroke="none" 
	d="
M625.838074,270.178162 
	C628.131409,270.178162 629.951172,270.178162 632.345215,270.178162 
	C632.345215,276.831299 632.345215,283.235565 632.345215,290.235870 
	C639.280518,290.235870 645.674194,290.235870 652.448303,290.235870 
	C652.448303,297.207611 652.448303,303.587189 652.448303,310.541809 
	C646.167603,310.541809 639.770569,310.541809 632.784180,310.541809 
	C632.784180,317.466644 632.784180,323.851166 632.784180,330.604370 
	C625.808289,330.604370 619.419434,330.604370 612.473267,330.604370 
	C612.473267,324.331635 612.473267,317.928345 612.473267,310.967529 
	C605.557861,310.967529 599.163940,310.967529 592.407837,310.967529 
	C592.407837,304.017334 592.407837,297.621918 592.407837,290.662537 
	C598.706726,290.662537 605.114807,290.662537 612.067383,290.662537 
	C612.067383,283.727844 612.067383,277.323303 612.067383,270.178162 
	C616.859131,270.178162 621.111816,270.178162 625.838074,270.178162 
z"/>
<path fill="#F9FAFC" opacity="1.000000" stroke="none" 
	d="
M558.888489,286.922668 
	C558.474915,290.464478 560.451294,290.482452 562.615173,290.461121 
	C567.906006,290.408905 573.197815,290.444092 578.767456,290.444092 
	C578.767456,297.351807 578.767456,303.748230 578.767456,310.698364 
	C572.230652,310.698364 565.830811,310.698364 558.902222,310.698364 
	C558.902222,317.626404 558.902222,324.025970 558.902222,330.691406 
	C551.956360,330.691406 545.554321,330.691406 538.628601,330.691406 
	C538.628601,324.154022 538.628601,317.736969 538.628601,310.808594 
	C531.711304,310.808594 525.300049,310.808594 518.583191,310.808594 
	C518.583191,303.899750 518.583191,297.511261 518.583191,290.530396 
	C525.117981,290.530396 531.521912,290.530396 538.494995,290.530396 
	C538.494995,283.568390 538.494995,277.173035 538.494995,270.487671 
	C545.458496,270.487671 551.839233,270.487671 558.887207,270.487671 
	C558.887207,275.905029 558.887207,281.166748 558.888489,286.922668 
z"/>
</svg>