<svg xmlns="http://www.w3.org/2000/svg"  viewBox="0 0 48 48" width="48px" height="48px" baseProfile="basic"><path fill="#bdbdbd" d="M8,9h32c1.105,0,2,0.895,2,2v22c0,1.105-0.895,2-2,2H8c-1.105,0-2-0.895-2-2V11C6,9.895,6.895,9,8,9z"/><rect width="32" height="21" x="8" y="11" fill="#546e7a"/><rect width="14" height="5" x="17" y="35" fill="#90a4ae"/><path fill="#bdbdbd" d="M33,39c-2,0-16,0-18,0s-2,2-2,2v1h22v-1C35,41,35,39,33,39z"/><path fill="#ff3d00" d="M44.25,21.875c0,0-0.875-1.625-0.375-2.25c0,0-1.5,1.125-1.125,2.25s-0.125,1.375-0.5,1.5	c-0.237,0.079-1.625-0.75-1.625-2.875c0,0,5.125-2.625,4.5-7.25c-0.058-0.43-0.332-1.055-0.75-1.625	c-0.112-0.153-0.448-1.007-0.375-1.375c0,0-0.75,1-0.375,1.75s-0.125,2.25-0.75,1.5s0-1.125-0.5-2.5	C41.664,9.045,40.625,8.375,39,7.875c0,0,1.625,3.125,0.5,6.375c-0.208,0.602-0.886,1.375-1.761,1.125	c-1.075-0.307-1.364-1.375-1.239-2.25s2.25-4.5-0.75-6.125c-1-0.542-2.875-2.5-1.625-4.25c0,0-1.75,0.122-1.75,2.75	c0,2-3.375-0.25-5-0.25c0,0,2.5,1.625,1.125,2.875S21.75,4.75,16.75,11.75c0,0,3.5-1.625,6.125,0.125	c0.455,0.303,1.242,1.084,2.225,2.155C31.17,14.344,36,19.351,36,25.5c0,0.523-0.047,1.034-0.115,1.539	c0.913,1.152,1.74,3.586,1.74,3.586s1.718,0.718,2.25,0.863c1.04,0.283,3.302,0.556,4.625-4.738C44.5,26.75,46.25,25,44.25,21.875z"/><path fill="#c62828" d="M14.25,30.625c-0.816-1.579-1.375-3.225-1.375-5.125c0-6.351,5.274-11.5,11.625-11.5	s11.25,5.024,11.25,11.375c0,1.5-0.375,2.75-1,4l2.875,1.25C38.559,28.79,39,26.7,39,24.5C39,17.044,32.956,11,25.5,11	S12,17.044,12,24.5c0,2.357,0.938,4.572,2,6.5L14.25,30.625z"/><circle cx="25.5" cy="24.5" r="1.5" fill="#ff3d00"/><circle cx="22.125" cy="22.75" r="1" fill="#ff3d00"/><path fill="#ff3d00" d="M34.75,29.375l-10.653-6.6c-0.455-0.282-1.053-0.112-1.293,0.366v0	c-0.233,0.467-0.027,1.033,0.451,1.241L34.75,29.375z"/><polygon fill="#c62828" points="14,31 16.625,29.625 13.5,29.875"/><polygon fill="#c62828" points="12.5,25.875 15.375,25.375 12.625,24.75"/><polygon fill="#c62828" points="14.125,19.375 16.375,21 13.625,20.375"/><polygon fill="#c62828" points="18,15.375 19,17.625 16.75,16.125"/><polygon fill="#c62828" points="21.875,13.625 22.875,15.875 23,13.5"/><polygon fill="#c62828" points="27.5,13.75 27.375,15.875 28.625,14"/><polygon fill="#c62828" points="31.75,16 31,17.5 32.5,16.5"/><polygon fill="#c62828" points="34.786,19.84 33.466,20.875 35.25,20.613"/><polygon fill="#c62828" points="36.41,24.25 34.843,24.849 36.625,25.125"/></svg>