<svg version="1.1" id="Layer_1" xmlns="http://www.w3.org/2000/svg" xmlns:xlink="http://www.w3.org/1999/xlink" x="0px" y="0px"
	 width="100%" viewBox="0 0 474 474" enable-background="new 0 0 474 474" xml:space="preserve">
<path fill="#FDFDFD" opacity="1.000000" stroke="none" 
	d="
M274.000000,475.000000 
	C182.666672,475.000000 91.833336,475.000000 1.000000,475.000000 
	C1.000000,317.000000 1.000000,159.000000 1.000000,1.000000 
	C159.000000,1.000000 317.000000,1.000000 475.000000,1.000000 
	C475.000000,159.000000 475.000000,317.000000 475.000000,475.000000 
	C408.166656,475.000000 341.333344,475.000000 274.000000,475.000000 
M78.906380,378.594635 
	C103.985527,405.651947 134.132675,424.782043 169.167099,436.245514 
	C174.971298,438.144684 181.802567,435.679565 185.086945,430.185852 
	C192.680054,417.485107 187.442703,403.668091 189.225845,390.827881 
	C181.452606,390.827881 174.611267,390.429504 167.834137,390.919434 
	C157.137177,391.692719 147.357101,389.650696 137.512192,385.154510 
	C123.741699,378.865479 113.978630,369.408234 108.570282,355.335480 
	C107.857956,353.481964 106.859093,351.737885 105.981224,349.948853 
	C101.157883,340.119110 92.815262,333.349976 85.225807,325.901001 
	C83.744019,324.446625 82.955757,322.285583 81.847626,320.450500 
	C84.117760,319.457458 86.355583,318.376312 88.677711,317.525116 
	C89.373924,317.269928 90.307266,317.641327 91.128616,317.750854 
	C103.041267,319.339386 112.504829,324.839569 120.354477,334.131042 
	C128.850891,344.188080 137.160339,354.494019 151.201080,358.109039 
	C163.986771,361.401001 176.302811,361.635468 187.741089,358.161285 
	C189.507263,348.022583 191.142700,338.634369 192.843262,328.872345 
	C192.325485,328.724579 190.903000,328.339508 189.493057,327.912994 
	C178.534317,324.597961 167.289948,322.003571 156.678497,317.808746 
	C131.567810,307.882050 111.731392,291.730865 99.810387,266.827911 
	C89.846756,246.013931 88.646057,224.102020 92.525497,201.969131 
	C95.728081,183.697922 103.793327,167.257553 116.202835,153.243576 
	C118.658707,150.470200 118.797737,148.194916 117.352257,144.867462 
	C109.116135,125.908180 110.336380,107.353218 120.512337,89.415459 
	C121.175896,88.245773 122.898628,86.785385 123.984535,86.894524 
	C130.095306,87.508636 136.306168,88.015152 142.215363,89.573067 
	C157.273270,93.542976 170.536331,100.945732 181.535309,112.105736 
	C183.737015,114.339676 185.801376,114.979202 189.011902,114.012726 
	C220.730453,104.464447 252.722916,104.823936 284.682343,112.458099 
	C290.046936,113.739548 293.505463,112.916977 297.370178,109.327209 
	C312.725433,95.064278 331.198303,88.062569 351.972015,86.883049 
	C353.164551,86.815338 355.149048,87.455147 355.521423,88.308395 
	C358.166199,94.368378 361.002289,100.423256 362.803406,106.756752 
	C366.578033,120.029778 364.685089,133.039490 359.991058,145.854645 
	C359.309052,147.716537 359.898529,150.642624 360.966736,152.443222 
	C365.528717,160.133072 371.166351,167.244125 375.181519,175.188080 
	C387.502319,199.564804 388.923981,225.203003 382.259674,251.419922 
	C375.802521,276.821960 360.145874,295.219116 338.146851,308.737091 
	C323.381073,317.810333 307.358185,323.523834 290.483704,327.085297 
	C287.922974,327.625763 285.407074,328.378754 283.663666,328.828705 
	C285.110077,336.787903 287.420776,344.214386 287.627472,351.698944 
	C288.114777,369.344513 287.566437,387.017639 287.508545,404.679871 
	C287.489990,410.341888 287.326965,416.040802 287.878845,421.659119 
	C288.880219,431.853760 299.952911,439.293365 308.721069,436.108398 
	C342.364227,423.887787 371.367401,404.742798 395.259857,378.028076 
	C431.238800,337.799164 450.024963,290.515167 450.599182,236.701477 
	C451.145111,185.537643 435.875641,138.901367 402.664154,99.690109 
	C345.012756,31.623693 271.405182,6.848985 184.600861,26.420179 
	C123.807930,40.126762 78.328369,76.492607 48.111927,130.947449 
	C23.657009,175.019104 16.318647,222.416656 25.323750,271.994537 
	C32.664013,312.406586 50.568962,347.802856 78.906380,378.594635 
z"/>
<path fill="#030303" opacity="1.000000" stroke="none" 
	d="
M78.658707,378.343384 
	C50.568962,347.802856 32.664013,312.406586 25.323750,271.994537 
	C16.318647,222.416656 23.657009,175.019104 48.111927,130.947449 
	C78.328369,76.492607 123.807930,40.126762 184.600861,26.420179 
	C271.405182,6.848985 345.012756,31.623693 402.664154,99.690109 
	C435.875641,138.901367 451.145111,185.537643 450.599182,236.701477 
	C450.024963,290.515167 431.238800,337.799164 395.259857,378.028076 
	C371.367401,404.742798 342.364227,423.887787 308.721069,436.108398 
	C299.952911,439.293365 288.880219,431.853760 287.878845,421.659119 
	C287.326965,416.040802 287.489990,410.341888 287.508545,404.679871 
	C287.566437,387.017639 288.114777,369.344513 287.627472,351.698944 
	C287.420776,344.214386 285.110077,336.787903 283.663666,328.828705 
	C285.407074,328.378754 287.922974,327.625763 290.483704,327.085297 
	C307.358185,323.523834 323.381073,317.810333 338.146851,308.737091 
	C360.145874,295.219116 375.802521,276.821960 382.259674,251.419922 
	C388.923981,225.203003 387.502319,199.564804 375.181519,175.188080 
	C371.166351,167.244125 365.528717,160.133072 360.966736,152.443222 
	C359.898529,150.642624 359.309052,147.716537 359.991058,145.854645 
	C364.685089,133.039490 366.578033,120.029778 362.803406,106.756752 
	C361.002289,100.423256 358.166199,94.368378 355.521423,88.308395 
	C355.149048,87.455147 353.164551,86.815338 351.972015,86.883049 
	C331.198303,88.062569 312.725433,95.064278 297.370178,109.327209 
	C293.505463,112.916977 290.046936,113.739548 284.682343,112.458099 
	C252.722916,104.823936 220.730453,104.464447 189.011902,114.012726 
	C185.801376,114.979202 183.737015,114.339676 181.535309,112.105736 
	C170.536331,100.945732 157.273270,93.542976 142.215363,89.573067 
	C136.306168,88.015152 130.095306,87.508636 123.984535,86.894524 
	C122.898628,86.785385 121.175896,88.245773 120.512337,89.415459 
	C110.336380,107.353218 109.116135,125.908180 117.352257,144.867462 
	C118.797737,148.194916 118.658707,150.470200 116.202835,153.243576 
	C103.793327,167.257553 95.728081,183.697922 92.525497,201.969131 
	C88.646057,224.102020 89.846756,246.013931 99.810387,266.827911 
	C111.731392,291.730865 131.567810,307.882050 156.678497,317.808746 
	C167.289948,322.003571 178.534317,324.597961 189.493057,327.912994 
	C190.903000,328.339508 192.325485,328.724579 192.843262,328.872345 
	C191.142700,338.634369 189.507263,348.022583 187.741089,358.161285 
	C176.302811,361.635468 163.986771,361.401001 151.201080,358.109039 
	C137.160339,354.494019 128.850891,344.188080 120.354477,334.131042 
	C112.504829,324.839569 103.041267,319.339386 91.128616,317.750854 
	C90.307266,317.641327 89.373924,317.269928 88.677711,317.525116 
	C86.355583,318.376312 84.117760,319.457458 81.847626,320.450500 
	C82.955757,322.285583 83.744019,324.446625 85.225807,325.901001 
	C92.815262,333.349976 101.157883,340.119110 105.981224,349.948853 
	C106.859093,351.737885 107.857956,353.481964 108.570282,355.335480 
	C113.978630,369.408234 123.741699,378.865479 137.512192,385.154510 
	C147.357101,389.650696 157.137177,391.692719 167.834137,390.919434 
	C174.611267,390.429504 181.452606,390.827881 189.225845,390.827881 
	C187.442703,403.668091 192.680054,417.485107 185.086945,430.185852 
	C181.802567,435.679565 174.971298,438.144684 169.167099,436.245514 
	C134.132675,424.782043 103.985527,405.651947 78.658707,378.343384 
z"/>
</svg>