<svg version="1.1" id="Layer_1" xmlns="http://www.w3.org/2000/svg" xmlns:xlink="http://www.w3.org/1999/xlink" x="0px" y="0px"
	 width="100%" viewBox="0 0 2400 2390" enable-background="new 0 0 2400 2390" xml:space="preserve">
<path fill="#000000" opacity="1.000000" stroke="none" 
	d="
M2402.000000,1252.000000 
	C2402.000000,1631.932373 2402.000000,2011.864746 2402.000000,2391.898438 
	C1602.210083,2391.898438 802.420044,2391.898438 2.000000,2391.898438 
	C2.000000,2013.944214 2.000000,1635.887939 2.766320,1256.361328 
	C4.439403,1257.930054 5.814022,1260.917358 6.157601,1264.019165 
	C6.922884,1270.927612 7.308479,1277.887573 7.610078,1284.836792 
	C9.266582,1323.004761 13.892703,1360.842163 20.027151,1398.520996 
	C25.840828,1434.229492 33.299282,1469.623779 44.332310,1504.052124 
	C51.976620,1527.906006 61.517166,1551.185913 70.944252,1574.424561 
	C79.171684,1594.706055 89.789902,1613.828491 102.279755,1632.623291 
	C116.162132,1655.867920 132.488708,1676.499146 150.910767,1695.315308 
	C179.152878,1724.161499 211.639465,1747.132568 249.094955,1762.665283 
	C276.031555,1773.835693 303.910156,1781.908325 333.191895,1782.130493 
	C401.514801,1782.649048 469.844421,1782.295776 538.171326,1782.248535 
	C541.039551,1782.246460 543.907410,1781.770264 547.662048,1781.436035 
	C547.662048,1776.800781 547.661560,1772.869385 547.662109,1768.938110 
	C547.673950,1679.946411 547.784241,1590.954712 547.623413,1501.963257 
	C547.586670,1481.621826 548.688293,1461.445190 551.636230,1441.303223 
	C558.946960,1391.352051 573.902893,1344.045288 599.978638,1300.616943 
	C630.719238,1249.419189 673.217407,1211.521851 728.136230,1187.498291 
	C775.004944,1166.996094 824.420593,1158.719727 874.940613,1158.558716 
	C1069.587036,1157.938599 1264.236572,1158.298706 1458.884888,1158.163696 
	C1469.163086,1158.156494 1479.466553,1157.231323 1489.713989,1156.265503 
	C1533.495850,1152.138672 1575.413208,1141.026855 1615.389771,1122.577637 
	C1653.408447,1105.032104 1687.028076,1081.463501 1713.799438,1049.112671 
	C1756.153198,997.931580 1775.733887,938.191833 1778.599854,872.048950 
	C1779.407959,871.200012 1779.502930,870.599487 1779.380737,869.019531 
	C1779.548584,863.099365 1779.619019,858.103882 1779.619751,853.108337 
	C1779.643433,679.577087 1779.650146,506.045807 1779.698120,332.514557 
	C1779.701904,318.870361 1781.016724,305.145599 1779.958130,291.596161 
	C1775.662720,236.620270 1752.189087,190.202667 1714.876587,150.355896 
	C1691.700562,125.605728 1664.482544,105.999031 1635.278687,89.036972 
	C1633.063721,87.750443 1630.418579,87.204346 1627.275879,86.120956 
	C1622.597778,83.704292 1618.757935,81.166473 1614.611938,79.313286 
	C1599.115967,72.386986 1583.769775,65.018082 1567.897095,59.070110 
	C1548.747559,51.894218 1529.391846,44.946815 1509.628906,39.811325 
	C1485.430054,33.523117 1461.167603,27.351992 1436.340820,23.433630 
	C1419.992798,20.853464 1403.754883,17.588982 1387.251099,15.966020 
	C1380.754639,15.327172 1374.269043,14.533546 1367.804688,13.624046 
	C1355.733765,11.925717 1343.727295,9.628936 1331.610107,8.433807 
	C1317.420898,7.034332 1303.138306,6.597038 1288.905884,5.604918 
	C1286.743652,5.454195 1283.161255,6.531476 1284.000000,2.000000 
	C1656.530151,2.000000 2029.060181,2.000000 2402.000000,2.000000 
	C2402.000000,386.055969 2402.000000,770.112122 2401.270020,1156.038208 
	C2399.878174,1157.456787 2399.216797,1157.005371 2398.953125,1155.677246 
	C2399.713135,1147.148071 2401.673340,1139.410278 2397.927490,1131.092407 
	C2397.632080,1124.847656 2397.538086,1119.477417 2397.666504,1113.644165 
	C2397.886963,1112.838623 2397.885498,1112.496094 2397.887939,1111.685059 
	C2397.740234,1110.541748 2397.335205,1110.098999 2396.526367,1108.974365 
	C2395.688965,1096.799561 2395.137939,1085.527710 2394.281982,1074.279175 
	C2393.059082,1058.209229 2390.602539,1042.270996 2389.160156,1026.203003 
	C2387.446289,1007.103760 2383.585938,988.166443 2380.092041,969.263123 
	C2368.133057,904.558472 2349.372314,842.051392 2318.478027,783.644165 
	C2305.253662,758.642944 2290.385742,734.658386 2271.120850,713.012451 
	C2270.557861,712.338196 2270.229248,712.167419 2269.814941,711.459717 
	C2269.201172,710.464600 2268.673096,710.006409 2267.915039,708.931763 
	C2256.656494,697.259033 2246.140625,685.628357 2234.504639,675.253967 
	C2199.122314,643.707703 2158.410889,621.893677 2112.146240,611.033936 
	C2103.832764,609.082458 2095.084229,609.029175 2086.561279,607.910889 
	C2078.462646,606.848145 2070.400635,604.530334 2062.315186,604.496155 
	C1995.992676,604.215454 1929.668457,604.330505 1863.344727,604.380371 
	C1861.153931,604.382019 1858.963623,604.969727 1856.326294,605.348389 
	C1856.326294,609.558044 1856.326294,613.196594 1856.326416,616.835144 
	C1856.329102,704.489075 1856.031982,792.144775 1856.533936,879.795837 
	C1856.668945,903.372742 1854.793945,926.726929 1851.435913,949.871338 
	C1844.701660,996.284424 1830.506104,1040.436279 1807.089355,1081.331787 
	C1783.517456,1122.498047 1752.162354,1156.438477 1711.647705,1181.266602 
	C1659.130493,1213.450195 1601.160034,1227.883301 1540.177002,1228.092407 
	C1348.207153,1228.750977 1156.233521,1228.235229 964.261658,1228.463135 
	C946.454895,1228.484253 928.640442,1230.417358 910.847473,1231.709106 
	C879.147339,1234.010742 848.619507,1241.855347 818.752197,1252.265991 
	C777.103394,1266.783447 739.455811,1288.340820 707.608765,1319.056763 
	C677.416504,1348.176636 655.913025,1383.045654 642.200073,1422.709106 
	C628.246521,1463.068359 623.698669,1504.846558 623.682007,1547.244751 
	C623.611389,1726.552124 623.699036,1905.859375 623.631714,2085.166748 
	C623.618530,2120.257324 633.329407,2152.679199 649.751831,2183.310547 
	C664.364380,2210.565430 683.750549,2233.973633 706.907288,2254.475342 
	C739.892273,2283.678467 777.176147,2305.644775 818.359192,2322.597168 
	C859.916809,2339.697021 902.209229,2352.263184 945.628906,2361.041260 
	C985.625061,2369.127441 1025.871948,2375.587158 1066.619995,2378.290771 
	C1101.060791,2380.575439 1135.516113,2383.467773 1170.000977,2384.083252 
	C1234.184570,2385.229248 1298.395142,2384.868896 1362.376221,2378.301514 
	C1383.346191,2376.149170 1404.373657,2374.350830 1425.237183,2371.412354 
	C1461.729004,2366.272949 1497.955444,2359.590332 1533.589966,2349.997803 
	C1580.309814,2337.420898 1625.528687,2321.156494 1667.222290,2296.107910 
	C1702.478149,2274.927002 1733.241211,2248.929443 1755.308472,2213.707764 
	C1772.451782,2186.345703 1781.811890,2156.639648 1781.476074,2123.610352 
	C1781.180542,2122.592529 1780.737061,2122.081787 1780.304443,2120.660645 
	C1780.315186,2029.305054 1780.315186,1938.859985 1780.315186,1847.674194 
	C1775.600098,1847.674194 1772.005371,1847.674316 1768.410767,1847.674194 
	C1603.921265,1847.668579 1439.431763,1847.659912 1274.942261,1847.676392 
	C1271.293701,1847.676758 1267.645020,1847.961792 1263.075195,1847.930420 
	C1241.677368,1847.484497 1221.179199,1847.982666 1200.850220,1847.463135 
	C1200.850220,1819.786377 1200.850220,1793.580566 1200.850220,1766.319336 
	C1204.909424,1766.319336 1208.489380,1766.339844 1212.068970,1766.315796 
	C1232.711548,1766.177612 1253.354248,1766.029175 1274.916504,1766.079590 
	C1278.833984,1766.296265 1281.831909,1766.335938 1284.829834,1766.335815 
	C1524.360352,1766.329712 1763.890869,1766.320557 2003.421387,1766.311646 
	C2009.084839,1766.311401 2014.752441,1766.171143 2020.410889,1766.341553 
	C2040.340698,1766.942139 2060.102783,1765.756226 2079.763916,1762.156128 
	C2151.466064,1749.027344 2212.005859,1715.742065 2261.946533,1662.663330 
	C2294.698242,1627.853638 2319.205322,1587.835938 2338.598389,1544.458252 
	C2357.527344,1502.118164 2370.494629,1457.881958 2379.626221,1412.503784 
	C2386.821533,1376.748779 2392.389160,1340.744873 2394.642578,1304.019043 
	C2395.232666,1303.160400 2395.336670,1302.529175 2395.530762,1300.986572 
	C2395.971191,1292.754517 2396.321533,1285.434082 2397.078613,1277.815186 
	C2397.557373,1276.872314 2397.629150,1276.227661 2397.682617,1274.700806 
	C2397.872559,1267.895386 2398.080322,1261.972168 2398.722900,1255.691406 
	C2400.105225,1254.222412 2401.052734,1253.111206 2402.000000,1252.000000 
z"/>
<path fill="#FFCF3F" opacity="1.000000" stroke="none" 
	d="
M2394.156738,1304.246704 
	C2392.389160,1340.744873 2386.821533,1376.748779 2379.626221,1412.503784 
	C2370.494629,1457.881958 2357.527344,1502.118164 2338.598389,1544.458252 
	C2319.205322,1587.835938 2294.698242,1627.853638 2261.946533,1662.663330 
	C2212.005859,1715.742065 2151.466064,1749.027344 2079.763916,1762.156128 
	C2060.102783,1765.756226 2040.340698,1766.942139 2020.410889,1766.341553 
	C2014.752441,1766.171143 2009.084839,1766.311401 2003.421387,1766.311646 
	C1763.890869,1766.320557 1524.360352,1766.329712 1284.829834,1766.335815 
	C1281.831909,1766.335938 1278.833984,1766.296265 1275.058350,1765.408691 
	C1275.814697,1762.893066 1277.259644,1761.149048 1278.898682,1759.611816 
	C1284.663086,1754.205688 1290.543945,1748.923096 1296.271729,1743.478882 
	C1298.189209,1741.656128 1299.717773,1739.431519 1301.531250,1737.490723 
	C1311.518433,1726.803223 1321.509155,1716.118530 1331.553833,1705.485229 
	C1355.073853,1680.586792 1378.639404,1655.731201 1402.156860,1630.830444 
	C1411.971802,1620.438232 1421.679565,1609.944580 1431.492065,1599.549927 
	C1454.774902,1574.885498 1478.101562,1550.262451 1501.391479,1525.604736 
	C1523.537720,1502.157593 1545.656250,1478.684448 1567.792725,1455.228027 
	C1590.386597,1431.287109 1612.985229,1407.350830 1635.586548,1383.417114 
	C1647.001343,1371.329224 1658.434082,1359.258179 1669.846680,1347.168213 
	C1692.214478,1323.472046 1714.567993,1299.762329 1736.938721,1276.068848 
	C1748.581299,1263.738037 1760.206787,1251.390503 1771.912231,1239.119507 
	C1800.610474,1209.033936 1829.369751,1179.006470 1858.065063,1148.918091 
	C1869.309326,1137.127808 1880.442627,1125.231567 1891.635132,1113.391846 
	C1914.935425,1088.744019 1938.253662,1064.113037 1961.539551,1039.451538 
	C1971.582031,1028.816040 1981.519409,1018.081116 1991.580322,1007.463257 
	C2016.741943,980.908569 2041.970825,954.417664 2067.121582,927.852600 
	C2075.804199,918.681580 2084.291504,909.325684 2092.943359,900.125244 
	C2115.038818,876.629639 2137.177246,853.174438 2159.297607,829.702393 
	C2170.014893,818.330139 2180.670410,806.898560 2191.461914,795.596924 
	C2208.003906,778.272888 2224.685059,761.081665 2241.207275,743.739075 
	C2246.242920,738.453491 2250.730469,732.636902 2255.871094,727.462708 
	C2260.759277,722.542480 2266.172607,718.143982 2271.355225,713.515991 
	C2290.385742,734.658386 2305.253662,758.642944 2318.478027,783.644165 
	C2349.372314,842.051392 2368.133057,904.558472 2380.092041,969.263123 
	C2383.585938,988.166443 2387.446289,1007.103760 2389.160156,1026.203003 
	C2390.602539,1042.270996 2393.059082,1058.209229 2394.281982,1074.279175 
	C2395.137939,1085.527710 2395.688965,1096.799561 2396.329590,1109.392090 
	C2396.282715,1110.723389 2396.324951,1111.646484 2396.330078,1112.124634 
	C2396.489014,1113.263428 2396.858643,1113.764893 2397.444336,1114.107300 
	C2397.538086,1119.477417 2397.632080,1124.847656 2397.838379,1132.003052 
	C2398.152344,1141.376831 2398.353760,1148.965454 2398.555176,1156.553955 
	C2399.216797,1157.005371 2399.878174,1157.456787 2401.270020,1156.954102 
	C2402.000000,1179.375122 2402.000000,1202.750244 2401.744141,1225.874390 
	C2400.686523,1225.740967 2399.884766,1225.858643 2398.783691,1226.126465 
	C2398.367188,1226.904663 2398.250000,1227.532715 2398.074463,1229.078857 
	C2398.106689,1238.681030 2398.197266,1247.364990 2398.288086,1256.049072 
	C2398.080322,1261.972168 2397.872559,1267.895386 2397.247559,1274.990234 
	C2396.777344,1276.812500 2396.724365,1277.463013 2396.671631,1278.113525 
	C2396.321533,1285.434082 2395.971191,1292.754517 2395.146973,1301.268311 
	C2394.232666,1302.978760 2394.060547,1303.573853 2394.156738,1304.246704 
z"/>
<path fill="#3776AA" opacity="1.000000" stroke="none" 
	d="
M102.121628,1631.954834 
	C89.789902,1613.828491 79.171684,1594.706055 70.944252,1574.424561 
	C61.517166,1551.185913 51.976620,1527.906006 44.332310,1504.052124 
	C33.299282,1469.623779 25.840828,1434.229492 20.027151,1398.520996 
	C13.892703,1360.842163 9.266582,1323.004761 7.610078,1284.836792 
	C7.308479,1277.887573 6.922884,1270.927612 6.157601,1264.019165 
	C5.814022,1260.917358 4.439403,1257.930054 2.766320,1255.445312 
	C2.000000,1249.938843 2.000000,1243.877563 2.721630,1237.623779 
	C4.054133,1237.138306 4.665007,1236.845215 5.455327,1236.212891 
	C5.722542,1235.365723 5.748725,1234.854614 5.709513,1234.031250 
	C5.509007,1233.089233 5.085112,1232.718262 4.225667,1232.842773 
	C4.017317,1233.076538 3.907892,1233.693237 3.383263,1233.473633 
	C2.572422,1233.502563 2.286211,1233.751343 2.000000,1234.000000 
	C2.000000,1206.624878 2.000000,1179.249756 2.842981,1151.064819 
	C4.342195,1147.836304 5.428817,1145.445435 5.587440,1142.994507 
	C7.024623,1120.788818 8.042651,1098.553589 9.674496,1076.363281 
	C13.291829,1027.173462 21.569220,978.724243 34.316303,931.094666 
	C49.996162,872.506714 72.514458,816.886169 107.525162,766.888123 
	C144.830399,713.613342 192.256729,672.444153 252.324417,646.611450 
	C293.812958,628.768860 337.239014,620.089905 382.398376,620.346191 
	C391.352478,620.397034 400.302155,621.590515 409.254181,621.594360 
	C634.509705,621.691406 859.765198,621.697449 1085.020752,621.739685 
	C1089.344360,621.740540 1093.667969,621.984070 1097.959717,622.829712 
	C1096.536255,626.108154 1095.601685,629.095947 1093.678711,631.165466 
	C1081.222778,644.571167 1068.760498,657.982727 1055.915161,671.012695 
	C998.141296,729.616943 940.248169,788.103638 882.379700,846.614563 
	C820.292297,909.391357 758.234924,972.198059 696.073425,1034.901367 
	C608.567566,1123.169922 520.985596,1211.363037 433.416321,1299.568604 
	C418.621368,1314.471069 403.679413,1329.227539 388.884888,1344.130371 
	C302.022369,1431.628662 215.177734,1519.144653 128.364563,1606.691772 
	C125.802917,1609.275391 123.805733,1612.413452 121.287560,1615.046387 
	C115.384201,1621.219360 110.694672,1628.801025 102.121628,1631.954834 
z"/>
<path fill="#000000" opacity="1.000000" stroke="none" 
	d="
M1097.991577,622.114380 
	C1093.667969,621.984070 1089.344360,621.740540 1085.020752,621.739685 
	C859.765198,621.697449 634.509705,621.691406 409.254181,621.594360 
	C400.302155,621.590515 391.352478,620.397034 382.398376,620.346191 
	C337.239014,620.089905 293.812958,628.768860 252.324417,646.611450 
	C192.256729,672.444153 144.830399,713.613342 107.525162,766.888123 
	C72.514458,816.886169 49.996162,872.506714 34.316303,931.094666 
	C21.569220,978.724243 13.291829,1027.173462 9.674496,1076.363281 
	C8.042651,1098.553589 7.024623,1120.788818 5.587440,1142.994507 
	C5.428817,1145.445435 4.342195,1147.836304 2.842981,1150.127441 
	C2.000000,767.482361 2.000000,384.964783 2.000000,2.000000 
	C367.375000,2.000000 732.750183,2.000000 1099.281006,2.825976 
	C1098.299438,4.317879 1096.194458,5.414519 1094.019775,5.577126 
	C1083.097412,6.393808 1072.157349,6.975575 1061.222534,7.622997 
	C1020.408203,10.039495 979.914856,15.160968 939.666138,22.240986 
	C885.472595,31.774008 832.519165,45.645611 781.996033,67.879326 
	C742.057068,85.455231 705.313721,107.854568 674.913086,139.620895 
	C651.735046,163.840240 634.816345,191.694977 626.617249,224.500412 
	C621.220276,246.094299 622.004761,268.038483 622.409424,290.600891 
	C622.219055,292.071259 622.203674,292.925110 622.230286,294.218262 
	C622.439148,295.250763 622.779297,295.717896 623.419373,296.984009 
	C623.546143,378.364258 623.546143,458.819458 623.546143,540.335144 
	C628.827332,540.335144 632.739685,540.335510 636.651978,540.335083 
	C816.777588,540.315125 996.903198,540.297485 1177.028809,540.258911 
	C1180.682983,540.258118 1184.337280,540.014404 1188.860596,540.054688 
	C1193.962524,540.420471 1198.195435,540.615601 1202.987061,540.836487 
	C1202.987061,567.840088 1202.987061,594.185303 1202.987061,621.668518 
	C1197.121338,621.668518 1191.888062,621.647034 1186.655029,621.672058 
	C1157.100586,621.813293 1127.546021,621.965759 1097.991577,622.114380 
z"/>
<path fill="#3776AA" opacity="1.000000" stroke="none" 
	d="
M1187.991455,539.884033 
	C1184.337280,540.014404 1180.682983,540.258118 1177.028809,540.258911 
	C996.903198,540.297485 816.777588,540.315125 636.651978,540.335083 
	C632.739685,540.335510 628.827332,540.335144 623.546143,540.335144 
	C623.546143,458.819458 623.546143,378.364258 623.586487,296.562225 
	C623.626831,295.215363 623.692810,294.310150 623.732300,293.733154 
	C623.376099,292.098907 622.980286,291.041626 622.584534,289.984375 
	C622.004761,268.038483 621.220276,246.094299 626.617249,224.500412 
	C634.816345,191.694977 651.735046,163.840240 674.913086,139.620895 
	C705.313721,107.854568 742.057068,85.455231 781.996033,67.879326 
	C832.519165,45.645611 885.472595,31.774008 939.666138,22.240986 
	C979.914856,15.160968 1020.408203,10.039495 1061.222534,7.622997 
	C1072.157349,6.975575 1083.097412,6.393808 1094.019775,5.577126 
	C1096.194458,5.414519 1098.299438,4.317879 1100.218262,2.825976 
	C1160.708496,2.000000 1221.416870,2.000000 1283.062744,2.000000 
	C1283.161255,6.531476 1286.743652,5.454195 1288.905884,5.604918 
	C1303.138306,6.597038 1317.420898,7.034332 1331.610107,8.433807 
	C1343.727295,9.628936 1355.733765,11.925717 1367.804688,13.624046 
	C1374.269043,14.533546 1380.754639,15.327172 1387.251099,15.966020 
	C1403.754883,17.588982 1419.992798,20.853464 1436.340820,23.433630 
	C1461.167603,27.351992 1485.430054,33.523117 1509.628906,39.811325 
	C1529.391846,44.946815 1548.747559,51.894218 1567.897095,59.070110 
	C1583.769775,65.018082 1599.115967,72.386986 1614.611938,79.313286 
	C1618.757935,81.166473 1622.597778,83.704292 1627.139526,86.773193 
	C1626.839966,89.020477 1626.193481,90.625748 1625.085815,91.793480 
	C1610.673462,106.987083 1596.390137,122.310173 1581.699219,137.231171 
	C1528.000244,191.771317 1474.152466,246.164917 1420.375122,300.627930 
	C1369.638672,352.011108 1318.970703,403.461884 1268.172607,454.783966 
	C1243.814697,479.393158 1219.222656,503.770416 1194.746460,528.262634 
	C1191.477905,531.533325 1187.581421,534.463989 1187.991455,539.884033 
M773.714050,262.982391 
	C773.553284,263.627686 773.384460,264.271088 773.232849,264.918518 
	C763.361267,307.057159 774.837524,342.502991 807.414185,370.725281 
	C827.653137,388.259125 851.653076,395.509888 878.467957,394.415344 
	C906.202576,393.283264 929.642883,382.470886 948.365784,362.658997 
	C970.757629,338.964813 980.304077,310.407410 976.279602,277.632538 
	C969.705139,224.091400 917.942627,176.636780 853.504944,189.548645 
	C813.315063,197.601791 787.013000,222.465424 773.714050,262.982391 
z"/>
<path fill="#40330E" opacity="1.000000" stroke="none" 
	d="
M2399.083008,1225.976196 
	C2399.884766,1225.858643 2400.686523,1225.740967 2401.744141,1226.811768 
	C2402.000000,1235.385864 2402.000000,1242.771606 2402.000000,1251.078857 
	C2401.052734,1253.111206 2400.105225,1254.222412 2398.722656,1255.691406 
	C2398.197266,1247.364990 2398.106689,1238.681030 2398.490723,1228.610474 
	C2399.004883,1226.808105 2399.043945,1226.392090 2399.083008,1225.976196 
z"/>
<path fill="#000000" opacity="1.000000" stroke="none" 
	d="
M2.000000,1234.500000 
	C2.286211,1233.751343 2.572422,1233.502563 3.634861,1234.232422 
	C4.699347,1235.657959 4.987608,1236.104980 5.275875,1236.552124 
	C4.665007,1236.845215 4.054133,1237.138306 2.721630,1236.715576 
	C2.000000,1236.000000 2.000000,1235.000000 2.000000,1234.500000 
z"/>
<path fill="#37709F" opacity="1.000000" stroke="none" 
	d="
M1188.860596,540.054688 
	C1187.581421,534.463989 1191.477905,531.533325 1194.746460,528.262634 
	C1219.222656,503.770416 1243.814697,479.393158 1268.172607,454.783966 
	C1318.970703,403.461884 1369.638672,352.011108 1420.375122,300.627930 
	C1474.152466,246.164917 1528.000244,191.771317 1581.699219,137.231171 
	C1596.390137,122.310173 1610.673462,106.987083 1625.085815,91.793480 
	C1626.193481,90.625748 1626.839966,89.020477 1627.837158,86.966324 
	C1630.418579,87.204346 1633.063721,87.750443 1635.278687,89.036972 
	C1664.482544,105.999031 1691.700562,125.605728 1714.876587,150.355896 
	C1752.189087,190.202667 1775.662720,236.620270 1779.958130,291.596161 
	C1781.016724,305.145599 1779.701904,318.870361 1779.698120,332.514557 
	C1779.650146,506.045807 1779.643433,679.577087 1779.619751,853.108337 
	C1779.619019,858.103882 1779.548584,863.099365 1779.070435,869.350586 
	C1778.283813,871.139648 1778.151733,871.721680 1778.233887,872.352295 
	C1775.733887,938.191833 1756.153198,997.931580 1713.799438,1049.112671 
	C1687.028076,1081.463501 1653.408447,1105.032104 1615.389771,1122.577637 
	C1575.413208,1141.026855 1533.495850,1152.138672 1489.713989,1156.265503 
	C1479.466553,1157.231323 1469.163086,1158.156494 1458.884888,1158.163696 
	C1264.236572,1158.298706 1069.587036,1157.938599 874.940613,1158.558716 
	C824.420593,1158.719727 775.004944,1166.996094 728.136230,1187.498291 
	C673.217407,1211.521851 630.719238,1249.419189 599.978638,1300.616943 
	C573.902893,1344.045288 558.946960,1391.352051 551.636230,1441.303223 
	C548.688293,1461.445190 547.586670,1481.621826 547.623413,1501.963257 
	C547.784241,1590.954712 547.673950,1679.946411 547.662109,1768.938110 
	C547.661560,1772.869385 547.662048,1776.800781 547.662048,1781.436035 
	C543.907410,1781.770264 541.039551,1782.246460 538.171326,1782.248535 
	C469.844421,1782.295776 401.514801,1782.649048 333.191895,1782.130493 
	C303.910156,1781.908325 276.031555,1773.835693 249.094955,1762.665283 
	C211.639465,1747.132568 179.152878,1724.161499 150.910767,1695.315308 
	C132.488708,1676.499146 116.162132,1655.867920 102.279755,1632.623291 
	C110.694672,1628.801025 115.384201,1621.219360 121.287560,1615.046387 
	C123.805733,1612.413452 125.802917,1609.275391 128.364563,1606.691772 
	C215.177734,1519.144653 302.022369,1431.628662 388.884888,1344.130371 
	C403.679413,1329.227539 418.621368,1314.471069 433.416321,1299.568604 
	C520.985596,1211.363037 608.567566,1123.169922 696.073425,1034.901367 
	C758.234924,972.198059 820.292297,909.391357 882.379700,846.614563 
	C940.248169,788.103638 998.141296,729.616943 1055.915161,671.012695 
	C1068.760498,657.982727 1081.222778,644.571167 1093.678711,631.165466 
	C1095.601685,629.095947 1096.536255,626.108154 1097.959717,622.829712 
	C1127.546021,621.965759 1157.100586,621.813293 1186.655029,621.672058 
	C1191.888062,621.647034 1197.121338,621.668518 1202.987061,621.668518 
	C1202.987061,594.185303 1202.987061,567.840088 1202.987061,540.836487 
	C1198.195435,540.615601 1193.962524,540.420471 1188.860596,540.054688 
z"/>
<path fill="#FFD748" opacity="1.000000" stroke="none" 
	d="
M2271.120850,713.012451 
	C2266.172607,718.143982 2260.759277,722.542480 2255.871094,727.462708 
	C2250.730469,732.636902 2246.242920,738.453491 2241.207275,743.739075 
	C2224.685059,761.081665 2208.003906,778.272888 2191.461914,795.596924 
	C2180.670410,806.898560 2170.014893,818.330139 2159.297607,829.702393 
	C2137.177246,853.174438 2115.038818,876.629639 2092.943359,900.125244 
	C2084.291504,909.325684 2075.804199,918.681580 2067.121582,927.852600 
	C2041.970825,954.417664 2016.741943,980.908569 1991.580322,1007.463257 
	C1981.519409,1018.081116 1971.582031,1028.816040 1961.539551,1039.451538 
	C1938.253662,1064.113037 1914.935425,1088.744019 1891.635132,1113.391846 
	C1880.442627,1125.231567 1869.309326,1137.127808 1858.065063,1148.918091 
	C1829.369751,1179.006470 1800.610474,1209.033936 1771.912231,1239.119507 
	C1760.206787,1251.390503 1748.581299,1263.738037 1736.938721,1276.068848 
	C1714.567993,1299.762329 1692.214478,1323.472046 1669.846680,1347.168213 
	C1658.434082,1359.258179 1647.001343,1371.329224 1635.586548,1383.417114 
	C1612.985229,1407.350830 1590.386597,1431.287109 1567.792725,1455.228027 
	C1545.656250,1478.684448 1523.537720,1502.157593 1501.391479,1525.604736 
	C1478.101562,1550.262451 1454.774902,1574.885498 1431.492065,1599.549927 
	C1421.679565,1609.944580 1411.971802,1620.438232 1402.156860,1630.830444 
	C1378.639404,1655.731201 1355.073853,1680.586792 1331.553833,1705.485229 
	C1321.509155,1716.118530 1311.518433,1726.803223 1301.531250,1737.490723 
	C1299.717773,1739.431519 1298.189209,1741.656128 1296.271729,1743.478882 
	C1290.543945,1748.923096 1284.663086,1754.205688 1278.898682,1759.611816 
	C1277.259644,1761.149048 1275.814697,1762.893066 1274.138672,1765.213135 
	C1253.354248,1766.029175 1232.711548,1766.177612 1212.068970,1766.315796 
	C1208.489380,1766.339844 1204.909424,1766.319336 1200.850220,1766.319336 
	C1200.850220,1793.580566 1200.850220,1819.786377 1200.850220,1847.463135 
	C1221.179199,1847.982666 1241.677368,1847.484497 1262.945435,1848.597900 
	C1254.798950,1859.658203 1246.105713,1870.094727 1236.873779,1880.030762 
	C1215.615234,1902.910889 1194.121460,1925.572632 1172.674194,1948.276733 
	C1148.712769,1973.642578 1124.679321,1998.940063 1100.714355,2024.302368 
	C1091.360718,2034.201660 1082.154907,2044.240601 1072.801514,2054.140137 
	C1048.837524,2079.503418 1024.815430,2104.811768 1000.843811,2130.167969 
	C990.801575,2140.790039 980.855469,2151.503418 970.817993,2162.130127 
	C947.314941,2187.013428 923.858887,2211.941650 900.238831,2236.713135 
	C881.652954,2256.205078 862.843445,2275.483887 844.157837,2294.880859 
	C842.778992,2296.311768 841.700867,2298.034668 840.308289,2299.450195 
	C832.870728,2307.010010 825.377686,2314.515625 817.903748,2322.039795 
	C777.176147,2305.644775 739.892273,2283.678467 706.907288,2254.475342 
	C683.750549,2233.973633 664.364380,2210.565430 649.751831,2183.310547 
	C633.329407,2152.679199 623.618530,2120.257324 623.631714,2085.166748 
	C623.699036,1905.859375 623.611389,1726.552124 623.682007,1547.244751 
	C623.698669,1504.846558 628.246521,1463.068359 642.200073,1422.709106 
	C655.913025,1383.045654 677.416504,1348.176636 707.608765,1319.056763 
	C739.455811,1288.340820 777.103394,1266.783447 818.752197,1252.265991 
	C848.619507,1241.855347 879.147339,1234.010742 910.847473,1231.709106 
	C928.640442,1230.417358 946.454895,1228.484253 964.261658,1228.463135 
	C1156.233521,1228.235229 1348.207153,1228.750977 1540.177002,1228.092407 
	C1601.160034,1227.883301 1659.130493,1213.450195 1711.647705,1181.266602 
	C1752.162354,1156.438477 1783.517456,1122.498047 1807.089355,1081.331787 
	C1830.506104,1040.436279 1844.701660,996.284424 1851.435913,949.871338 
	C1854.793945,926.726929 1856.668945,903.372742 1856.533936,879.795837 
	C1856.031982,792.144775 1856.329102,704.489075 1856.326416,616.835144 
	C1856.326294,613.196594 1856.326294,609.558044 1856.326294,605.348389 
	C1858.963623,604.969727 1861.153931,604.382019 1863.344727,604.380371 
	C1929.668457,604.330505 1995.992676,604.215454 2062.315186,604.496155 
	C2070.400635,604.530334 2078.462646,606.848145 2086.561279,607.910889 
	C2095.084229,609.029175 2103.832764,609.082458 2112.146240,611.033936 
	C2158.410889,621.893677 2199.122314,643.707703 2234.504639,675.253967 
	C2246.140625,685.628357 2256.656494,697.259033 2268.106934,709.405945 
	C2268.986328,710.996643 2269.443604,711.496704 2269.900879,711.996704 
	C2270.229248,712.167419 2270.557861,712.338196 2271.120850,713.012451 
z"/>
<path fill="#FFCD3D" opacity="1.000000" stroke="none" 
	d="
M818.359192,2322.597168 
	C825.377686,2314.515625 832.870728,2307.010010 840.308289,2299.450195 
	C841.700867,2298.034668 842.778992,2296.311768 844.157837,2294.880859 
	C862.843445,2275.483887 881.652954,2256.205078 900.238831,2236.713135 
	C923.858887,2211.941650 947.314941,2187.013428 970.817993,2162.130127 
	C980.855469,2151.503418 990.801575,2140.790039 1000.843811,2130.167969 
	C1024.815430,2104.811768 1048.837524,2079.503418 1072.801514,2054.140137 
	C1082.154907,2044.240601 1091.360718,2034.201660 1100.714355,2024.302368 
	C1124.679321,1998.940063 1148.712769,1973.642578 1172.674194,1948.276733 
	C1194.121460,1925.572632 1215.615234,1902.910889 1236.873779,1880.030762 
	C1246.105713,1870.094727 1254.798950,1859.658203 1263.866699,1848.781494 
	C1267.645020,1847.961792 1271.293701,1847.676758 1274.942261,1847.676392 
	C1439.431763,1847.659912 1603.921265,1847.668579 1768.410767,1847.674194 
	C1772.005371,1847.674316 1775.600098,1847.674194 1780.315186,1847.674194 
	C1780.315186,1938.859985 1780.315186,2029.305054 1780.228271,2121.161133 
	C1780.536865,2123.086914 1780.932495,2123.602051 1781.328125,2124.116943 
	C1781.811890,2156.639648 1772.451782,2186.345703 1755.308472,2213.707764 
	C1733.241211,2248.929443 1702.478149,2274.927002 1667.222290,2296.107910 
	C1625.528687,2321.156494 1580.309814,2337.420898 1533.589966,2349.997803 
	C1497.955444,2359.590332 1461.729004,2366.272949 1425.237183,2371.412354 
	C1404.373657,2374.350830 1383.346191,2376.149170 1362.376221,2378.301514 
	C1298.395142,2384.868896 1234.184570,2385.229248 1170.000977,2384.083252 
	C1135.516113,2383.467773 1101.060791,2380.575439 1066.619995,2378.290771 
	C1025.871948,2375.587158 985.625061,2369.127441 945.628906,2361.041260 
	C902.209229,2352.263184 859.916809,2339.697021 818.359192,2322.597168 
M1634.277222,2098.206543 
	C1634.079834,2095.224854 1633.864136,2092.244141 1633.687988,2089.261230 
	C1630.149048,2029.405273 1574.422363,1986.407104 1517.931641,1993.370605 
	C1461.385254,2000.340820 1418.504639,2054.869873 1427.629639,2111.175781 
	C1432.465454,2141.014893 1447.048828,2164.595459 1471.652222,2181.857910 
	C1497.259277,2199.824707 1525.756104,2204.082520 1555.713989,2196.822266 
	C1581.960693,2190.461426 1602.809692,2175.458496 1617.383545,2152.624268 
	C1627.144653,2137.330811 1633.490112,2120.641846 1633.998047,2101.079834 
	C1633.956543,2100.709473 1633.915039,2100.339355 1634.277222,2098.206543 
z"/>
<path fill="#41340F" opacity="1.000000" stroke="none" 
	d="
M2398.953125,1155.677246 
	C2398.353760,1148.965454 2398.152344,1141.376831 2398.040039,1132.877686 
	C2401.673340,1139.410278 2399.713135,1147.148071 2398.953125,1155.677246 
z"/>
<path fill="#BE992C" opacity="1.000000" stroke="none" 
	d="
M1781.476074,2123.610352 
	C1780.932495,2123.602051 1780.536865,2123.086914 1780.217407,2122.071289 
	C1780.737061,2122.081787 1781.180542,2122.592529 1781.476074,2123.610352 
z"/>
<path fill="#41340F" opacity="1.000000" stroke="none" 
	d="
M2397.078613,1277.815186 
	C2396.724365,1277.463013 2396.777344,1276.812500 2397.265381,1275.872559 
	C2397.629150,1276.227661 2397.557373,1276.872314 2397.078613,1277.815186 
z"/>
<path fill="#BE992C" opacity="1.000000" stroke="none" 
	d="
M2394.642578,1304.019043 
	C2394.060547,1303.573853 2394.232666,1302.978760 2395.057129,1302.179688 
	C2395.336670,1302.529175 2395.232666,1303.160400 2394.642578,1304.019043 
z"/>
<path fill="#BE992C" opacity="1.000000" stroke="none" 
	d="
M2397.666504,1113.644165 
	C2396.858643,1113.764893 2396.489014,1113.263428 2396.722656,1112.241821 
	C2397.109863,1111.880859 2397.883789,1112.153687 2397.883789,1112.153687 
	C2397.885498,1112.496094 2397.886963,1112.838623 2397.666504,1113.644165 
z"/>
<path fill="#41340F" opacity="1.000000" stroke="none" 
	d="
M2397.887939,1111.685059 
	C2397.883789,1112.153687 2397.109863,1111.880859 2396.717285,1111.763672 
	C2396.324951,1111.646484 2396.282715,1110.723389 2396.479736,1110.305664 
	C2397.335205,1110.098999 2397.740234,1110.541748 2397.887939,1111.685059 
z"/>
<path fill="#295174" opacity="1.000000" stroke="none" 
	d="
M1778.599854,872.048950 
	C1778.151733,871.721680 1778.283813,871.139648 1778.940430,870.275146 
	C1779.502930,870.599487 1779.407959,871.200012 1778.599854,872.048950 
z"/>
<path fill="#FFCF3F" opacity="1.000000" stroke="none" 
	d="
M2269.814941,711.459778 
	C2269.443604,711.496704 2268.986328,710.996643 2268.337158,710.022461 
	C2268.673096,710.006409 2269.201172,710.464600 2269.814941,711.459778 
z"/>
<path fill="#BE992C" opacity="1.000000" stroke="none" 
	d="
M2398.783691,1226.126465 
	C2399.043945,1226.392090 2399.004883,1226.808105 2398.549316,1227.692383 
	C2398.250000,1227.532715 2398.367188,1226.904663 2398.783691,1226.126465 
z"/>
<path fill="#0E1E2C" opacity="1.000000" stroke="none" 
	d="
M5.455321,1236.212891 
	C4.987608,1236.104980 4.699347,1235.657959 4.159490,1234.452148 
	C3.907892,1233.693237 4.017317,1233.076538 4.455076,1233.342163 
	C5.166331,1233.851929 5.439827,1234.096069 5.713324,1234.340210 
	C5.748725,1234.854614 5.722542,1235.365723 5.455321,1236.212891 
z"/>
<path fill="#295981" opacity="1.000000" stroke="none" 
	d="
M5.709513,1234.031250 
	C5.439827,1234.096069 5.166331,1233.851929 4.663426,1233.108398 
	C5.085112,1232.718262 5.509007,1233.089233 5.709513,1234.031250 
z"/>
<path fill="#295981" opacity="1.000000" stroke="none" 
	d="
M622.409424,290.600891 
	C622.980286,291.041626 623.376099,292.098907 623.357178,293.598511 
	C622.942566,294.040894 622.188354,293.778961 622.188354,293.778961 
	C622.203674,292.925110 622.219055,292.071259 622.409424,290.600891 
z"/>
<path fill="#0E1E2C" opacity="1.000000" stroke="none" 
	d="
M622.230286,294.218262 
	C622.188354,293.778961 622.942566,294.040894 623.317688,294.175537 
	C623.692810,294.310150 623.626831,295.215363 623.459717,295.637146 
	C622.779297,295.717896 622.439148,295.250763 622.230286,294.218262 
z"/>
<path fill="#000101" opacity="1.000000" stroke="none" 
	d="
M773.907959,262.191284 
	C787.013000,222.465424 813.315063,197.601791 853.504944,189.548645 
	C917.942627,176.636780 969.705139,224.091400 976.279602,277.632538 
	C980.304077,310.407410 970.757629,338.964813 948.365784,362.658997 
	C929.642883,382.470886 906.202576,393.283264 878.467957,394.415344 
	C851.653076,395.509888 827.653137,388.259125 807.414185,370.725281 
	C774.837524,342.502991 763.361267,307.057159 773.232849,264.918518 
	C773.384460,264.271088 773.553284,263.627686 773.907959,262.191284 
z"/>
<path fill="#010100" opacity="1.000000" stroke="none" 
	d="
M1633.525391,2102.092529 
	C1633.490112,2120.641846 1627.144653,2137.330811 1617.383545,2152.624268 
	C1602.809692,2175.458496 1581.960693,2190.461426 1555.713989,2196.822266 
	C1525.756104,2204.082520 1497.259277,2199.824707 1471.652222,2181.857910 
	C1447.048828,2164.595459 1432.465454,2141.014893 1427.629639,2111.175781 
	C1418.504639,2054.869873 1461.385254,2000.340820 1517.931641,1993.370605 
	C1574.422363,1986.407104 1630.149048,2029.405273 1633.687988,2089.261230 
	C1633.864136,2092.244141 1634.079834,2095.224854 1633.776367,2099.257324 
	C1633.175415,2100.512939 1632.954346,2100.750488 1632.999146,2100.916016 
	C1633.109741,2101.325684 1633.342041,2101.702637 1633.525391,2102.092529 
z"/>
<path fill="#41340F" opacity="1.000000" stroke="none" 
	d="
M1633.761719,2101.586182 
	C1633.342041,2101.702637 1633.109741,2101.325684 1632.999146,2100.916016 
	C1632.954346,2100.750488 1633.175415,2100.512939 1633.574585,2100.138672 
	C1633.915039,2100.339355 1633.956543,2100.709473 1633.761719,2101.586182 
z"/>
</svg>