<?xml version="1.0" encoding="UTF-8"?>
<svg version="1.1" xmlns="http://www.w3.org/2000/svg" width="512" height="512">
<path d="M0 0 C6.14565624 3.41528185 10.4441265 7.88808105 12.5766449 14.67791748 C13.14773006 17.52136303 13.15067236 20.1856074 13.14477539 23.08691406 C13.14469986 24.32789856 13.14462433 25.56888306 13.14454651 26.84747314 C13.13944031 28.19649292 13.13422432 29.54551229 13.12890625 30.89453125 C13.12704024 32.27886911 13.1256172 33.66320763 13.12461853 35.04754639 C13.12080773 38.68401933 13.11098975 42.32045207 13.09991455 45.95690918 C13.0896695 49.67048591 13.08505944 53.38406935 13.08007812 57.09765625 C13.06989736 64.3789417 13.05032206 71.6601169 13.03125 78.94140625 C26.56125 78.94140625 40.09125 78.94140625 54.03125 78.94140625 C53.99644531 74.55859375 53.96164063 70.17578125 53.92578125 65.66015625 C53.90646622 62.14885717 53.89020567 58.63757326 53.87599945 55.12625122 C53.86020726 51.42878424 53.8391302 47.73152613 53.80493164 44.03417969 C53.77215558 40.46800183 53.75435891 36.90202557 53.74661827 33.33570862 C53.73843901 31.32395778 53.71504907 29.31228718 53.69136047 27.30065918 C53.68969073 18.15820157 54.36158051 10.80163773 61.03125 3.94140625 C68.49225783 -1.54015052 74.93997382 -1.90037858 84.03125 -1.05859375 C90.72573817 0.91888475 94.32131495 4.96187147 97.9375 10.7578125 C99.99962794 14.87470364 100.15408038 18.5088615 100.14477539 23.08691406 C100.14469986 24.32789856 100.14462433 25.56888306 100.14454651 26.84747314 C100.13944031 28.19649292 100.13422432 29.54551229 100.12890625 30.89453125 C100.12704024 32.27886911 100.1256172 33.66320763 100.12461853 35.04754639 C100.12080773 38.68401933 100.11098975 42.32045207 100.09991455 45.95690918 C100.0896695 49.67048591 100.08505944 53.38406935 100.08007812 57.09765625 C100.06989736 64.3789417 100.05032206 71.6601169 100.03125 78.94140625 C113.56125 78.94140625 127.09125 78.94140625 141.03125 78.94140625 C140.99644531 74.64238281 140.96164062 70.34335938 140.92578125 65.9140625 C140.90646049 62.46564239 140.89020197 59.01723778 140.87599945 55.56879425 C140.86022017 51.93987495 140.83916751 48.31116915 140.80493164 44.68237305 C140.77210851 41.18102875 140.7543492 37.67989025 140.74661827 34.17840385 C140.73845495 32.20603008 140.71507289 30.23373799 140.69136047 28.26148987 C140.68982992 20.01688287 141.31488199 13.15646006 145.84375 6.12890625 C151.32684427 0.64581198 156.09718154 -1.21454261 163.71875 -1.37109375 C169.71905467 -1.30311913 174.33242664 -0.98156488 179.03125 2.94140625 C184.4699791 8.78255252 187.29065541 14.21975557 187.25830078 22.29223633 C187.25814972 23.55316605 187.25799866 24.81409576 187.25784302 26.11323547 C187.24763136 27.47913777 187.2371994 28.84503844 187.2265625 30.2109375 C187.22282941 31.61626484 187.21998383 33.02159478 187.21798706 34.42692566 C187.21037389 38.11440293 187.19074553 41.80172107 187.1685791 45.48913574 C187.14807059 49.25640714 187.13897467 53.02370441 187.12890625 56.79101562 C187.10749725 64.17455148 187.07338954 71.55795651 187.03125 78.94140625 C190.00709534 79.28759003 190.00709534 79.28759003 192.98294067 79.6337738 C204.33790072 81.33915789 214.23245706 88.79049096 220.90625 97.81640625 C225.77629468 105.30524855 227.99172836 112.16855825 229.03125 120.94140625 C229.79022583 120.93474442 230.54920166 120.92808258 231.33117676 120.92121887 C238.51014365 120.8609199 245.68898644 120.81533696 252.86814117 120.78596973 C256.55836355 120.77036379 260.24837535 120.74921943 263.93847656 120.71508789 C267.50465442 120.68231183 271.07063068 120.66451516 274.63694763 120.65677452 C276.64869847 120.64859526 278.66036907 120.62520532 280.67199707 120.60151672 C289.20229429 120.59995879 295.08607344 121.28599895 302.28125 126.12890625 C307.68702308 131.65753781 309.28599062 136.16424359 309.59375 143.94140625 C309.32480494 152.33249205 306.62056569 156.68867723 300.65625 162.31640625 C293.83739883 168.32908782 284.48150014 167.20412938 276.00390625 167.13671875 C274.64627797 167.13298306 273.28864697 167.13013872 271.93101501 167.12814331 C268.37837118 167.12055056 264.82589397 167.10094022 261.27331543 167.07873535 C257.63991591 167.05818238 254.00648835 167.04901148 250.37304688 167.0390625 C243.258968 167.01875397 236.14534515 166.97959704 229.03125 166.94140625 C229.03125 180.47140625 229.03125 194.00140625 229.03125 207.94140625 C235.60546875 207.88919922 235.60546875 207.88919922 242.3125 207.8359375 C245.82379908 207.81662247 249.33508299 207.80036192 252.84640503 207.7861557 C256.54387201 207.77036351 260.24113012 207.74928645 263.93847656 207.71508789 C267.50465442 207.68231183 271.07063068 207.66451516 274.63694763 207.65677452 C276.64869847 207.64859526 278.66036907 207.62520532 280.67199707 207.60151672 C289.81445468 207.59984698 297.17101852 208.27173676 304.03125 214.94140625 C308.6642268 220.36860764 310.36812936 227.06097443 309.87890625 234.1484375 C308.53619838 240.63179838 305.21855089 246.17295021 300.09375 250.31640625 C294.90822601 253.06790877 290.52560471 254.19240362 284.65869141 254.16845703 C283.41785797 254.16830597 282.17702454 254.16815491 280.89859009 254.16799927 C279.55999589 254.1577885 278.22140337 254.14735655 276.8828125 254.13671875 C275.50133469 254.13298438 274.11985422 254.13013941 272.7383728 254.12814331 C269.11831229 254.12054017 265.49841457 254.10092062 261.87841797 254.07873535 C258.17808269 254.05820504 254.4777201 254.04901639 250.77734375 254.0390625 C243.52850249 254.01873485 236.28010712 253.97958045 229.03125 253.94140625 C229.03125 267.47140625 229.03125 281.00140625 229.03125 294.94140625 C233.33027344 294.90660156 237.62929688 294.87179687 242.05859375 294.8359375 C245.50701386 294.81661674 248.95541847 294.80035822 252.403862 294.7861557 C256.0327813 294.77037642 259.6614871 294.74932376 263.2902832 294.71508789 C266.7916275 294.68226476 270.292766 294.66450545 273.7942524 294.65677452 C275.76662617 294.6486112 277.73891826 294.62522914 279.71116638 294.60151672 C287.55992916 294.60005966 294.73660903 294.93515757 301.3359375 299.5546875 C301.85414063 300.11542969 302.37234375 300.67617188 302.90625 301.25390625 C303.43992187 301.80691406 303.97359375 302.35992187 304.5234375 302.9296875 C309.72271772 309.86655101 310.15137954 316.52654882 309.03125 324.94140625 C306.67885036 331.46436057 302.96440028 335.71406643 296.9609375 339.1015625 C292.90785256 340.86555696 289.29202685 341.0638875 284.88574219 341.05493164 C283.64475769 341.05485611 282.40377319 341.05478058 281.12518311 341.05470276 C279.77616333 341.04959656 278.42714396 341.04438057 277.078125 341.0390625 C275.69378714 341.03719649 274.30944862 341.03577345 272.92510986 341.03477478 C269.28863692 341.03096398 265.65220418 341.021146 262.01574707 341.0100708 C258.30217024 340.99982575 254.5885869 340.99527054 250.875 340.99023438 C243.59373171 340.97952241 236.3124965 340.96246329 229.03125 340.94140625 C228.81190796 342.82690186 228.81190796 342.82690186 228.58813477 344.75048828 C227.28577666 355.94574515 221.12573855 365.74463287 212.64453125 372.9765625 C204.57370071 378.94416248 196.88296573 381.77404627 187.03125 382.94140625 C187.04124275 384.07987 187.04124275 384.07987 187.05143738 385.24133301 C187.11173635 392.4202999 187.15731929 399.59914269 187.18668652 406.77829742 C187.20229246 410.4685198 187.22343682 414.1585316 187.25756836 417.84863281 C187.29034442 421.41481067 187.30814109 424.98078693 187.31588173 428.54710388 C187.32406099 430.55885472 187.34745093 432.57052532 187.37113953 434.58215332 C187.37269746 443.11245054 186.6866573 448.99622969 181.84375 456.19140625 C176.31511844 461.59717933 171.80841266 463.19614687 164.03125 463.50390625 C155.6401642 463.23496119 151.28397902 460.53072194 145.65625 454.56640625 C139.64356843 447.74755508 140.76852687 438.39165639 140.8359375 429.9140625 C140.83967319 428.55643422 140.84251753 427.19880322 140.84451294 425.84117126 C140.85210569 422.28852743 140.87171603 418.73605022 140.8939209 415.18347168 C140.91447387 411.55007216 140.92364477 407.9166446 140.93359375 404.28320312 C140.95390228 397.16912425 140.99305921 390.0555014 141.03125 382.94140625 C127.50125 382.94140625 113.97125 382.94140625 100.03125 382.94140625 C100.06605469 387.32421875 100.10085938 391.70703125 100.13671875 396.22265625 C100.15603378 399.73395533 100.17229433 403.24523924 100.18650055 406.75656128 C100.20229274 410.45402826 100.2233698 414.15128637 100.25756836 417.84863281 C100.29034442 421.41481067 100.30814109 424.98078693 100.31588173 428.54710388 C100.32406099 430.55885472 100.34745093 432.57052532 100.37113953 434.58215332 C100.37263216 442.75486957 99.68528113 448.55204708 95.40625 455.62890625 C89.8979533 460.99224777 84.8406973 463.27485643 77.09375 463.62890625 C70.14532707 463.35126948 65.2225426 461.6017712 60.03125 456.94140625 C55.27469494 451.19390222 53.90270659 446.18476241 53.91772461 438.79589844 C53.91780014 437.55491394 53.91787567 436.31392944 53.91795349 435.03533936 C53.92305969 433.68631958 53.92827568 432.33730021 53.93359375 430.98828125 C53.93545976 429.60394339 53.9368828 428.21960487 53.93788147 426.83526611 C53.94169227 423.19879317 53.95151025 419.56236043 53.96258545 415.92590332 C53.9728305 412.21232659 53.97744056 408.49874315 53.98242188 404.78515625 C53.99260264 397.5038708 54.01217794 390.2226956 54.03125 382.94140625 C40.50125 382.94140625 26.97125 382.94140625 13.03125 382.94140625 C13.07765625 387.22882813 13.1240625 391.51625 13.171875 395.93359375 C13.19764281 399.37648048 13.21931833 402.81933956 13.23825073 406.26226807 C13.25927498 409.88337922 13.28731574 413.50410895 13.33300781 417.125 C13.37682814 420.61988162 13.40046218 424.11439601 13.41075897 427.6095314 C13.42162481 429.57581966 13.45279181 431.54196248 13.48443604 433.50802612 C13.48644938 441.64145166 12.92355873 449.44357116 7.38482666 455.84396362 C2.37776001 460.63672485 -3.52368693 463.00784633 -10.40625 463.37890625 C-17.60649478 463.06908505 -23.03793252 460.32781769 -27.90625 455.06640625 C-32.1495547 450.11086838 -33.22201842 444.99216955 -33.19580078 438.56884766 C-33.19564972 437.32801422 -33.19549866 436.08718079 -33.19534302 434.80874634 C-33.18513225 433.47015214 -33.1747003 432.13155962 -33.1640625 430.79296875 C-33.16032813 429.41149094 -33.15748316 428.03001047 -33.15548706 426.64852905 C-33.14788392 423.02846854 -33.12826437 419.40857082 -33.1060791 415.78857422 C-33.08554878 412.08823854 -33.07647004 408.38787633 -33.06640625 404.6875 C-33.04501499 397.43872821 -33.01091964 390.19009012 -32.96875 382.94140625 C-34.10036308 382.74680061 -34.10036308 382.74680061 -35.25483704 382.54826355 C-36.24493271 382.37402359 -37.23502838 382.19978363 -38.25512695 382.02026367 C-39.23641068 381.84927658 -40.2176944 381.67828949 -41.22871399 381.50212097 C-52.46043642 379.2036869 -61.54055428 371.88844549 -67.78125 362.56640625 C-72.04973866 355.46846384 -73.83220084 349.09279845 -74.96875 340.94140625 C-75.72550522 340.9502887 -76.48226044 340.95917114 -77.26194763 340.96832275 C-84.42587027 341.04877816 -91.58957099 341.10952654 -98.753829 341.14865494 C-102.43626258 341.16944825 -106.11831997 341.19761213 -109.80053711 341.24316406 C-113.36025198 341.28692033 -116.91960714 341.3106053 -120.47957039 341.32091522 C-122.48523459 341.33180267 -124.49075594 341.36298049 -126.49620056 341.39459229 C-135.36014769 341.39675092 -141.84661256 340.33071926 -148.78125 334.62890625 C-154.23119306 327.93326192 -155.6571655 323.8038519 -155.34765625 315.09765625 C-154.60586009 308.91857069 -152.24986161 304.88967546 -147.78125 300.62890625 C-139.62033101 294.44642172 -130.86825655 294.5273111 -120.96484375 294.6484375 C-119.64581558 294.65268234 -118.32678741 294.65692719 -116.9677887 294.66130066 C-113.49069615 294.67265947 -110.01399004 294.70204694 -106.53704834 294.7354126 C-102.97722695 294.76630905 -99.4173402 294.78001281 -95.85742188 294.79492188 C-88.89419192 294.82532899 -81.93201789 294.88406919 -74.96875 294.94140625 C-74.96875 281.41140625 -74.96875 267.88140625 -74.96875 253.94140625 C-81.54296875 253.99361328 -81.54296875 253.99361328 -88.25 254.046875 C-91.76129908 254.06619003 -95.27258299 254.08245058 -98.78390503 254.0966568 C-102.48137201 254.11244899 -106.17863012 254.13352605 -109.87597656 254.16772461 C-113.44215442 254.20050067 -117.00813068 254.21829734 -120.57444763 254.22603798 C-122.58619847 254.23421724 -124.59786907 254.25760718 -126.60949707 254.28129578 C-135.13979429 254.28285371 -141.02357344 253.59681355 -148.21875 248.75390625 C-153.62452308 243.22527469 -155.22349062 238.71856891 -155.53125 230.94140625 C-155.29062945 223.43404503 -153.39763065 219.49787315 -148.2890625 214.19921875 C-142.97946603 209.26719358 -137.8670123 207.68467865 -130.59619141 207.71435547 C-129.35535797 207.71450653 -128.11452454 207.71465759 -126.83609009 207.71481323 C-125.49749589 207.725024 -124.15890337 207.73545595 -122.8203125 207.74609375 C-121.43883469 207.74982812 -120.05735422 207.75267309 -118.6758728 207.75466919 C-115.05581229 207.76227233 -111.43591457 207.78189188 -107.81591797 207.80407715 C-104.11558269 207.82460746 -100.4152201 207.83379611 -96.71484375 207.84375 C-89.46600249 207.86407765 -82.21760712 207.90323205 -74.96875 207.94140625 C-74.96875 194.41140625 -74.96875 180.88140625 -74.96875 166.94140625 C-81.41728516 166.99361328 -81.41728516 166.99361328 -87.99609375 167.046875 C-91.44451386 167.06619576 -94.89291847 167.08245428 -98.341362 167.0966568 C-101.9702813 167.11243608 -105.5989871 167.13348874 -109.2277832 167.16772461 C-112.7291275 167.20054774 -116.230266 167.21830705 -119.7317524 167.22603798 C-121.70412617 167.2342013 -123.67641826 167.25758336 -125.64866638 167.28129578 C-133.49742916 167.28275284 -140.67410903 166.94765493 -147.2734375 162.328125 C-147.79164063 161.76738281 -148.30984375 161.20664063 -148.84375 160.62890625 C-149.64425781 159.79939453 -149.64425781 159.79939453 -150.4609375 158.953125 C-154.13598665 154.04988585 -155.38397898 150.05621099 -155.34375 143.94140625 C-155.35148437 142.76578125 -155.35921875 141.59015625 -155.3671875 140.37890625 C-154.69662007 134.59361861 -151.93379471 130.12673123 -147.96875 125.94140625 C-142.28501973 121.98404265 -137.64967422 120.814006 -130.82324219 120.82788086 C-129.58225769 120.82795639 -128.34127319 120.82803192 -127.06268311 120.82810974 C-125.71366333 120.83321594 -124.36464396 120.83843193 -123.015625 120.84375 C-121.63128714 120.84561601 -120.24694862 120.84703905 -118.86260986 120.84803772 C-115.22613692 120.85184852 -111.58970418 120.8616665 -107.95324707 120.8727417 C-104.23967024 120.88298675 -100.5260869 120.88754196 -96.8125 120.89257812 C-89.53123171 120.90329009 -82.2499965 120.92034921 -74.96875 120.94140625 C-74.77169716 119.80795776 -74.77169716 119.80795776 -74.57066345 118.65161133 C-74.39515457 117.66056396 -74.21964569 116.6695166 -74.03881836 115.6484375 C-73.8661998 114.66593018 -73.69358124 113.68342285 -73.51573181 112.67114258 C-71.35357564 101.88080891 -64.33416981 93.70145176 -55.96875 86.94140625 C-50.25654332 83.220269 -44.96065448 81.04828652 -38.26171875 79.87133789 C-37.27067139 79.69582901 -36.27962402 79.52032013 -35.25854492 79.3394928 C-34.5029126 79.20812424 -33.74728027 79.07675568 -32.96875 78.94140625 C-32.97874275 77.8029425 -32.97874275 77.8029425 -32.98893738 76.64147949 C-33.04923635 69.4625126 -33.09481929 62.28366981 -33.12418652 55.10451508 C-33.13979246 51.4142927 -33.16093682 47.7242809 -33.19506836 44.03417969 C-33.22784442 40.46800183 -33.24564109 36.90202557 -33.25338173 33.33570862 C-33.26156099 31.32395778 -33.28495093 29.31228718 -33.30863953 27.30065918 C-33.31030927 18.15820157 -32.63841949 10.80163773 -25.96875 3.94140625 C-18.25480503 -1.72598189 -9.22225757 -3.2884629 0 0 Z " fill="#1A348F" transform="translate(178.96875,25.05859375)"/>
<path d="M0 0 C6.14565624 3.41528185 10.4441265 7.88808105 12.5766449 14.67791748 C13.14773006 17.52136303 13.15067236 20.1856074 13.14477539 23.08691406 C13.14469986 24.32789856 13.14462433 25.56888306 13.14454651 26.84747314 C13.13944031 28.19649292 13.13422432 29.54551229 13.12890625 30.89453125 C13.12704024 32.27886911 13.1256172 33.66320763 13.12461853 35.04754639 C13.12080773 38.68401933 13.11098975 42.32045207 13.09991455 45.95690918 C13.0896695 49.67048591 13.08505944 53.38406935 13.08007812 57.09765625 C13.06989736 64.3789417 13.05032206 71.6601169 13.03125 78.94140625 C26.56125 78.94140625 40.09125 78.94140625 54.03125 78.94140625 C53.99644531 74.55859375 53.96164063 70.17578125 53.92578125 65.66015625 C53.90646622 62.14885717 53.89020567 58.63757326 53.87599945 55.12625122 C53.86020726 51.42878424 53.8391302 47.73152613 53.80493164 44.03417969 C53.77215558 40.46800183 53.75435891 36.90202557 53.74661827 33.33570862 C53.73843901 31.32395778 53.71504907 29.31228718 53.69136047 27.30065918 C53.68969073 18.15820157 54.36158051 10.80163773 61.03125 3.94140625 C68.49225783 -1.54015052 74.93997382 -1.90037858 84.03125 -1.05859375 C90.72573817 0.91888475 94.32131495 4.96187147 97.9375 10.7578125 C99.99962794 14.87470364 100.15408038 18.5088615 100.14477539 23.08691406 C100.14469986 24.32789856 100.14462433 25.56888306 100.14454651 26.84747314 C100.13944031 28.19649292 100.13422432 29.54551229 100.12890625 30.89453125 C100.12704024 32.27886911 100.1256172 33.66320763 100.12461853 35.04754639 C100.12080773 38.68401933 100.11098975 42.32045207 100.09991455 45.95690918 C100.0896695 49.67048591 100.08505944 53.38406935 100.08007812 57.09765625 C100.06989736 64.3789417 100.05032206 71.6601169 100.03125 78.94140625 C113.56125 78.94140625 127.09125 78.94140625 141.03125 78.94140625 C140.99644531 74.64238281 140.96164062 70.34335938 140.92578125 65.9140625 C140.90646049 62.46564239 140.89020197 59.01723778 140.87599945 55.56879425 C140.86022017 51.93987495 140.83916751 48.31116915 140.80493164 44.68237305 C140.77210851 41.18102875 140.7543492 37.67989025 140.74661827 34.17840385 C140.73845495 32.20603008 140.71507289 30.23373799 140.69136047 28.26148987 C140.68982992 20.01688287 141.31488199 13.15646006 145.84375 6.12890625 C151.32684427 0.64581198 156.09718154 -1.21454261 163.71875 -1.37109375 C169.71905467 -1.30311913 174.33242664 -0.98156488 179.03125 2.94140625 C184.4699791 8.78255252 187.29065541 14.21975557 187.25830078 22.29223633 C187.25814972 23.55316605 187.25799866 24.81409576 187.25784302 26.11323547 C187.24763136 27.47913777 187.2371994 28.84503844 187.2265625 30.2109375 C187.22282941 31.61626484 187.21998383 33.02159478 187.21798706 34.42692566 C187.21037389 38.11440293 187.19074553 41.80172107 187.1685791 45.48913574 C187.14807059 49.25640714 187.13897467 53.02370441 187.12890625 56.79101562 C187.10749725 64.17455148 187.07338954 71.55795651 187.03125 78.94140625 C190.00709534 79.28759003 190.00709534 79.28759003 192.98294067 79.6337738 C204.33790072 81.33915789 214.23245706 88.79049096 220.90625 97.81640625 C225.77629468 105.30524855 227.99172836 112.16855825 229.03125 120.94140625 C229.79022583 120.93474442 230.54920166 120.92808258 231.33117676 120.92121887 C238.51014365 120.8609199 245.68898644 120.81533696 252.86814117 120.78596973 C256.55836355 120.77036379 260.24837535 120.74921943 263.93847656 120.71508789 C267.50465442 120.68231183 271.07063068 120.66451516 274.63694763 120.65677452 C276.64869847 120.64859526 278.66036907 120.62520532 280.67199707 120.60151672 C289.20229429 120.59995879 295.08607344 121.28599895 302.28125 126.12890625 C307.68702308 131.65753781 309.28599062 136.16424359 309.59375 143.94140625 C309.32480494 152.33249205 306.62056569 156.68867723 300.65625 162.31640625 C293.83739883 168.32908782 284.48150014 167.20412938 276.00390625 167.13671875 C274.64627797 167.13298306 273.28864697 167.13013872 271.93101501 167.12814331 C268.37837118 167.12055056 264.82589397 167.10094022 261.27331543 167.07873535 C257.63991591 167.05818238 254.00648835 167.04901148 250.37304688 167.0390625 C243.258968 167.01875397 236.14534515 166.97959704 229.03125 166.94140625 C229.03125 180.47140625 229.03125 194.00140625 229.03125 207.94140625 C235.60546875 207.88919922 235.60546875 207.88919922 242.3125 207.8359375 C245.82379908 207.81662247 249.33508299 207.80036192 252.84640503 207.7861557 C256.54387201 207.77036351 260.24113012 207.74928645 263.93847656 207.71508789 C267.50465442 207.68231183 271.07063068 207.66451516 274.63694763 207.65677452 C276.64869847 207.64859526 278.66036907 207.62520532 280.67199707 207.60151672 C289.81445468 207.59984698 297.17101852 208.27173676 304.03125 214.94140625 C308.6642268 220.36860764 310.36812936 227.06097443 309.87890625 234.1484375 C308.53619838 240.63179838 305.21855089 246.17295021 300.09375 250.31640625 C294.90822601 253.06790877 290.52560471 254.19240362 284.65869141 254.16845703 C283.41785797 254.16830597 282.17702454 254.16815491 280.89859009 254.16799927 C279.55999589 254.1577885 278.22140337 254.14735655 276.8828125 254.13671875 C275.50133469 254.13298438 274.11985422 254.13013941 272.7383728 254.12814331 C269.11831229 254.12054017 265.49841457 254.10092062 261.87841797 254.07873535 C258.17808269 254.05820504 254.4777201 254.04901639 250.77734375 254.0390625 C243.52850249 254.01873485 236.28010712 253.97958045 229.03125 253.94140625 C229.03125 267.47140625 229.03125 281.00140625 229.03125 294.94140625 C233.33027344 294.90660156 237.62929688 294.87179687 242.05859375 294.8359375 C245.50701386 294.81661674 248.95541847 294.80035822 252.403862 294.7861557 C256.0327813 294.77037642 259.6614871 294.74932376 263.2902832 294.71508789 C266.7916275 294.68226476 270.292766 294.66450545 273.7942524 294.65677452 C275.76662617 294.6486112 277.73891826 294.62522914 279.71116638 294.60151672 C287.55992916 294.60005966 294.73660903 294.93515757 301.3359375 299.5546875 C301.85414063 300.11542969 302.37234375 300.67617188 302.90625 301.25390625 C303.43992187 301.80691406 303.97359375 302.35992187 304.5234375 302.9296875 C309.72271772 309.86655101 310.15137954 316.52654882 309.03125 324.94140625 C306.67885036 331.46436057 302.96440028 335.71406643 296.9609375 339.1015625 C292.90785256 340.86555696 289.29202685 341.0638875 284.88574219 341.05493164 C283.64475769 341.05485611 282.40377319 341.05478058 281.12518311 341.05470276 C279.77616333 341.04959656 278.42714396 341.04438057 277.078125 341.0390625 C275.69378714 341.03719649 274.30944862 341.03577345 272.92510986 341.03477478 C269.28863692 341.03096398 265.65220418 341.021146 262.01574707 341.0100708 C258.30217024 340.99982575 254.5885869 340.99527054 250.875 340.99023438 C243.59373171 340.97952241 236.3124965 340.96246329 229.03125 340.94140625 C228.81190796 342.82690186 228.81190796 342.82690186 228.58813477 344.75048828 C227.28577666 355.94574515 221.12573855 365.74463287 212.64453125 372.9765625 C204.57370071 378.94416248 196.88296573 381.77404627 187.03125 382.94140625 C187.04124275 384.07987 187.04124275 384.07987 187.05143738 385.24133301 C187.11173635 392.4202999 187.15731929 399.59914269 187.18668652 406.77829742 C187.20229246 410.4685198 187.22343682 414.1585316 187.25756836 417.84863281 C187.29034442 421.41481067 187.30814109 424.98078693 187.31588173 428.54710388 C187.32406099 430.55885472 187.34745093 432.57052532 187.37113953 434.58215332 C187.37269746 443.11245054 186.6866573 448.99622969 181.84375 456.19140625 C176.31511844 461.59717933 171.80841266 463.19614687 164.03125 463.50390625 C155.6401642 463.23496119 151.28397902 460.53072194 145.65625 454.56640625 C139.64356843 447.74755508 140.76852687 438.39165639 140.8359375 429.9140625 C140.83967319 428.55643422 140.84251753 427.19880322 140.84451294 425.84117126 C140.85210569 422.28852743 140.87171603 418.73605022 140.8939209 415.18347168 C140.91447387 411.55007216 140.92364477 407.9166446 140.93359375 404.28320312 C140.95390228 397.16912425 140.99305921 390.0555014 141.03125 382.94140625 C127.50125 382.94140625 113.97125 382.94140625 100.03125 382.94140625 C100.06605469 387.32421875 100.10085938 391.70703125 100.13671875 396.22265625 C100.15603378 399.73395533 100.17229433 403.24523924 100.18650055 406.75656128 C100.20229274 410.45402826 100.2233698 414.15128637 100.25756836 417.84863281 C100.29034442 421.41481067 100.30814109 424.98078693 100.31588173 428.54710388 C100.32406099 430.55885472 100.34745093 432.57052532 100.37113953 434.58215332 C100.37263216 442.75486957 99.68528113 448.55204708 95.40625 455.62890625 C89.8979533 460.99224777 84.8406973 463.27485643 77.09375 463.62890625 C70.14532707 463.35126948 65.2225426 461.6017712 60.03125 456.94140625 C55.27469494 451.19390222 53.90270659 446.18476241 53.91772461 438.79589844 C53.91780014 437.55491394 53.91787567 436.31392944 53.91795349 435.03533936 C53.92305969 433.68631958 53.92827568 432.33730021 53.93359375 430.98828125 C53.93545976 429.60394339 53.9368828 428.21960487 53.93788147 426.83526611 C53.94169227 423.19879317 53.95151025 419.56236043 53.96258545 415.92590332 C53.9728305 412.21232659 53.97744056 408.49874315 53.98242188 404.78515625 C53.99260264 397.5038708 54.01217794 390.2226956 54.03125 382.94140625 C40.50125 382.94140625 26.97125 382.94140625 13.03125 382.94140625 C13.07765625 387.22882813 13.1240625 391.51625 13.171875 395.93359375 C13.19764281 399.37648048 13.21931833 402.81933956 13.23825073 406.26226807 C13.25927498 409.88337922 13.28731574 413.50410895 13.33300781 417.125 C13.37682814 420.61988162 13.40046218 424.11439601 13.41075897 427.6095314 C13.42162481 429.57581966 13.45279181 431.54196248 13.48443604 433.50802612 C13.48644938 441.64145166 12.92355873 449.44357116 7.38482666 455.84396362 C2.37776001 460.63672485 -3.52368693 463.00784633 -10.40625 463.37890625 C-17.60649478 463.06908505 -23.03793252 460.32781769 -27.90625 455.06640625 C-32.1495547 450.11086838 -33.22201842 444.99216955 -33.19580078 438.56884766 C-33.19564972 437.32801422 -33.19549866 436.08718079 -33.19534302 434.80874634 C-33.18513225 433.47015214 -33.1747003 432.13155962 -33.1640625 430.79296875 C-33.16032813 429.41149094 -33.15748316 428.03001047 -33.15548706 426.64852905 C-33.14788392 423.02846854 -33.12826437 419.40857082 -33.1060791 415.78857422 C-33.08554878 412.08823854 -33.07647004 408.38787633 -33.06640625 404.6875 C-33.04501499 397.43872821 -33.01091964 390.19009012 -32.96875 382.94140625 C-34.10036308 382.74680061 -34.10036308 382.74680061 -35.25483704 382.54826355 C-36.24493271 382.37402359 -37.23502838 382.19978363 -38.25512695 382.02026367 C-39.23641068 381.84927658 -40.2176944 381.67828949 -41.22871399 381.50212097 C-52.46043642 379.2036869 -61.54055428 371.88844549 -67.78125 362.56640625 C-72.04973866 355.46846384 -73.83220084 349.09279845 -74.96875 340.94140625 C-75.72550522 340.9502887 -76.48226044 340.95917114 -77.26194763 340.96832275 C-84.42587027 341.04877816 -91.58957099 341.10952654 -98.753829 341.14865494 C-102.43626258 341.16944825 -106.11831997 341.19761213 -109.80053711 341.24316406 C-113.36025198 341.28692033 -116.91960714 341.3106053 -120.47957039 341.32091522 C-122.48523459 341.33180267 -124.49075594 341.36298049 -126.49620056 341.39459229 C-135.36014769 341.39675092 -141.84661256 340.33071926 -148.78125 334.62890625 C-154.23119306 327.93326192 -155.6571655 323.8038519 -155.34765625 315.09765625 C-154.60586009 308.91857069 -152.24986161 304.88967546 -147.78125 300.62890625 C-139.62033101 294.44642172 -130.86825655 294.5273111 -120.96484375 294.6484375 C-119.64581558 294.65268234 -118.32678741 294.65692719 -116.9677887 294.66130066 C-113.49069615 294.67265947 -110.01399004 294.70204694 -106.53704834 294.7354126 C-102.97722695 294.76630905 -99.4173402 294.78001281 -95.85742188 294.79492188 C-88.89419192 294.82532899 -81.93201789 294.88406919 -74.96875 294.94140625 C-74.96875 281.41140625 -74.96875 267.88140625 -74.96875 253.94140625 C-81.54296875 253.99361328 -81.54296875 253.99361328 -88.25 254.046875 C-91.76129908 254.06619003 -95.27258299 254.08245058 -98.78390503 254.0966568 C-102.48137201 254.11244899 -106.17863012 254.13352605 -109.87597656 254.16772461 C-113.44215442 254.20050067 -117.00813068 254.21829734 -120.57444763 254.22603798 C-122.58619847 254.23421724 -124.59786907 254.25760718 -126.60949707 254.28129578 C-135.13979429 254.28285371 -141.02357344 253.59681355 -148.21875 248.75390625 C-153.62452308 243.22527469 -155.22349062 238.71856891 -155.53125 230.94140625 C-155.29062945 223.43404503 -153.39763065 219.49787315 -148.2890625 214.19921875 C-142.97946603 209.26719358 -137.8670123 207.68467865 -130.59619141 207.71435547 C-129.35535797 207.71450653 -128.11452454 207.71465759 -126.83609009 207.71481323 C-125.49749589 207.725024 -124.15890337 207.73545595 -122.8203125 207.74609375 C-121.43883469 207.74982812 -120.05735422 207.75267309 -118.6758728 207.75466919 C-115.05581229 207.76227233 -111.43591457 207.78189188 -107.81591797 207.80407715 C-104.11558269 207.82460746 -100.4152201 207.83379611 -96.71484375 207.84375 C-89.46600249 207.86407765 -82.21760712 207.90323205 -74.96875 207.94140625 C-74.96875 194.41140625 -74.96875 180.88140625 -74.96875 166.94140625 C-81.41728516 166.99361328 -81.41728516 166.99361328 -87.99609375 167.046875 C-91.44451386 167.06619576 -94.89291847 167.08245428 -98.341362 167.0966568 C-101.9702813 167.11243608 -105.5989871 167.13348874 -109.2277832 167.16772461 C-112.7291275 167.20054774 -116.230266 167.21830705 -119.7317524 167.22603798 C-121.70412617 167.2342013 -123.67641826 167.25758336 -125.64866638 167.28129578 C-133.49742916 167.28275284 -140.67410903 166.94765493 -147.2734375 162.328125 C-147.79164063 161.76738281 -148.30984375 161.20664063 -148.84375 160.62890625 C-149.64425781 159.79939453 -149.64425781 159.79939453 -150.4609375 158.953125 C-154.13598665 154.04988585 -155.38397898 150.05621099 -155.34375 143.94140625 C-155.35148437 142.76578125 -155.35921875 141.59015625 -155.3671875 140.37890625 C-154.69662007 134.59361861 -151.93379471 130.12673123 -147.96875 125.94140625 C-142.28501973 121.98404265 -137.64967422 120.814006 -130.82324219 120.82788086 C-129.58225769 120.82795639 -128.34127319 120.82803192 -127.06268311 120.82810974 C-125.71366333 120.83321594 -124.36464396 120.83843193 -123.015625 120.84375 C-121.63128714 120.84561601 -120.24694862 120.84703905 -118.86260986 120.84803772 C-115.22613692 120.85184852 -111.58970418 120.8616665 -107.95324707 120.8727417 C-104.23967024 120.88298675 -100.5260869 120.88754196 -96.8125 120.89257812 C-89.53123171 120.90329009 -82.2499965 120.92034921 -74.96875 120.94140625 C-74.77169716 119.80795776 -74.77169716 119.80795776 -74.57066345 118.65161133 C-74.39515457 117.66056396 -74.21964569 116.6695166 -74.03881836 115.6484375 C-73.8661998 114.66593018 -73.69358124 113.68342285 -73.51573181 112.67114258 C-71.35357564 101.88080891 -64.33416981 93.70145176 -55.96875 86.94140625 C-50.25654332 83.220269 -44.96065448 81.04828652 -38.26171875 79.87133789 C-37.27067139 79.69582901 -36.27962402 79.52032013 -35.25854492 79.3394928 C-34.5029126 79.20812424 -33.74728027 79.07675568 -32.96875 78.94140625 C-32.97874275 77.8029425 -32.97874275 77.8029425 -32.98893738 76.64147949 C-33.04923635 69.4625126 -33.09481929 62.28366981 -33.12418652 55.10451508 C-33.13979246 51.4142927 -33.16093682 47.7242809 -33.19506836 44.03417969 C-33.22784442 40.46800183 -33.24564109 36.90202557 -33.25338173 33.33570862 C-33.26156099 31.32395778 -33.28495093 29.31228718 -33.30863953 27.30065918 C-33.31030927 18.15820157 -32.63841949 10.80163773 -25.96875 3.94140625 C-18.25480503 -1.72598189 -9.22225757 -3.2884629 0 0 Z M-58.71484375 101.00390625 C-67.62988599 113.45384055 -67.54757064 125.86596764 -67.48632812 140.578125 C-67.49175452 142.76877303 -67.49888008 144.95941741 -67.50756836 147.15005493 C-67.52574285 153.07566469 -67.51875834 159.00099464 -67.50605202 164.92660904 C-67.49589393 171.14077738 -67.50532549 177.35492247 -67.51159668 183.5690918 C-67.51932986 194.67028104 -67.50693353 205.77134701 -67.48655933 216.87251651 C-67.46869051 226.91930553 -67.47179531 236.96590963 -67.49023438 247.01269531 C-67.51160825 258.7053047 -67.51958524 270.39779853 -67.50778532 282.09042454 C-67.50156333 288.27056375 -67.50067919 294.45057584 -67.51393127 300.63070679 C-67.52552323 306.44210809 -67.51740267 312.25316168 -67.49435425 318.0645256 C-67.48908505 320.19170938 -67.4905501 322.31892264 -67.49940491 324.44609451 C-67.5542432 338.96303553 -66.81031815 351.37209614 -56.96875 362.94140625 C-47.90980653 371.57304107 -38.38454799 375.09124331 -26.05784607 375.08857727 C-24.69228776 375.0940923 -24.69228776 375.0940923 -23.29914242 375.09971875 C-20.24165892 375.11075175 -17.18420941 375.11459881 -14.12670898 375.1184082 C-11.93709709 375.12467321 -9.74748625 375.13132004 -7.55787659 375.13832092 C-0.36020651 375.15936163 6.83746379 375.16972424 14.03515625 375.1796875 C16.5138392 375.18373524 18.99252204 375.18785217 21.47120476 375.19203758 C32.44989014 375.20999744 43.42857093 375.22437512 54.4072684 375.23221399 C56.41547387 375.23365242 58.42367932 375.2351038 60.43188477 375.23657227 C61.09663505 375.23705601 61.76138534 375.23753975 62.44627958 375.23803815 C73.20541396 375.24633153 83.96443691 375.27165721 94.72352267 375.30415294 C105.78087715 375.33727597 116.83817222 375.35490749 127.89557594 375.35843056 C134.09932292 375.36077933 140.30289379 375.36971743 146.5065937 375.39489174 C152.34658674 375.41820691 158.18628814 375.42239164 164.02631569 375.41213036 C166.16479717 375.41163571 168.30329317 375.41793511 170.4417305 375.4316864 C185.00347636 375.52005431 197.42312196 374.81599532 209.03125 364.94140625 C217.66288482 355.88246278 221.18108706 346.35720424 221.17842102 334.03050232 C221.18393605 332.66494401 221.18393605 332.66494401 221.1895625 331.27179867 C221.2005955 328.21431517 221.20444256 325.15686566 221.20825195 322.09936523 C221.21451696 319.90975334 221.22116379 317.7201425 221.22816467 315.53053284 C221.24920538 308.33286276 221.25956799 301.13519246 221.26953125 293.9375 C221.27357899 291.45881705 221.27769592 288.98013421 221.28188133 286.50145149 C221.29984119 275.52276611 221.31421887 264.54408532 221.32205774 253.56538785 C221.32349617 251.55718238 221.32494755 249.54897693 221.32641602 247.54077148 C221.32689976 246.8760212 221.3273835 246.21127091 221.3278819 245.52637667 C221.33617528 234.76724229 221.36150096 224.00821934 221.39399669 213.24913358 C221.42711972 202.1917791 221.44475124 191.13448403 221.44827431 180.07708031 C221.45062308 173.87333333 221.45956118 167.66976246 221.48473549 161.46606255 C221.50805066 155.62606951 221.51223539 149.78636811 221.50197411 143.94634056 C221.50147946 141.80785908 221.50777886 139.66936308 221.52153015 137.53092575 C221.60996464 122.95820847 220.89678402 110.56471916 211.03125 98.94140625 C202.36407563 90.54040231 192.12088192 86.79441207 180.20936584 86.7875061 C179.29647008 86.78312385 178.38357431 86.7787416 177.44301504 86.77422655 C174.37094351 86.76082666 171.29890069 86.75465691 168.22680664 86.74853516 C166.02911245 86.74063491 163.83141955 86.73236601 161.63372803 86.72375488 C154.40296673 86.69751829 147.17219961 86.68222218 139.94140625 86.66796875 C137.4519138 86.6626091 134.96242138 86.65723159 132.472929 86.6518364 C122.11446833 86.63020223 111.75600829 86.61131589 101.39753056 86.600214 C98.7096004 86.59728447 96.02167029 86.59432279 93.33374023 86.59130859 C92.33167409 86.59018952 92.33167409 86.59018952 91.30936419 86.58904783 C80.50231546 86.57641092 69.69543187 86.54321059 58.88846023 86.50150676 C47.78255016 86.45900242 36.67670861 86.43591601 25.57071584 86.43029344 C19.33949053 86.42664405 13.10854492 86.4146666 6.87739754 86.3821907 C1.00946495 86.3520476 -4.85801963 86.34582082 -10.72601318 86.35757446 C-12.87375625 86.35779469 -15.02152048 86.34953163 -17.16919136 86.33192062 C-33.37561671 86.20631831 -47.55089954 87.81696544 -58.71484375 101.00390625 Z " fill="#C5C5C6" transform="translate(178.96875,25.05859375)"/>
<path d="M0 0 C2.05610371 -0.00584 4.11215633 -0.01554721 6.16823959 -0.02633667 C10.01758978 -0.04593803 13.86684093 -0.04849367 17.71624374 -0.04879761 C19.4548391 -0.05951546 19.4548391 -0.05951546 21.22855759 -0.07044983 C22.8111512 -0.06589531 22.8111512 -0.06589531 24.4257164 -0.06124878 C25.80927826 -0.06338631 25.80927826 -0.06338631 27.22079086 -0.06556702 C29.42718124 0.18167114 29.42718124 0.18167114 31.42718124 2.18167114 C31.42718124 3.50167114 31.42718124 4.82167114 31.42718124 6.18167114 C28.04840757 8.21834472 25.43079154 8.43267671 21.51702499 8.45510864 C20.36138046 8.47573364 19.20573593 8.49635864 18.01507187 8.51760864 C15.60889058 8.54335697 13.20261785 8.56175954 10.79632187 8.57229614 C3.12080509 8.72521181 -3.67616005 9.59162963 -10.57281876 13.18167114 C-13.1340036 18.30404084 -11.03189718 24.99297137 -9.36578751 30.18557739 C-5.28365979 41.95983302 -0.05787668 53.27601936 5.05608749 64.62698364 C8.77332396 72.88801721 12.31705687 81.2217557 15.86468124 89.55667114 C20.44920661 100.32534427 25.14016264 111.02920195 29.98968124 121.68167114 C38.86514389 141.27531411 46.60758316 161.32585769 54.38811874 181.37307739 C54.71246399 182.20853592 55.03680923 183.04399445 55.37098312 183.9047699 C56.94389902 187.95862102 58.51260423 192.0140148 60.07342148 196.07254028 C60.35863663 196.81136948 60.64385178 197.55019867 60.93770981 198.31141663 C61.47291182 199.69783417 62.00603732 201.08505567 62.53676987 202.47319031 C63.58621963 205.56342183 63.58621963 205.56342183 65.42718124 208.18167114 C79.10626091 174.64907388 92.77023085 141.10086559 105.30218124 107.11917114 C105.59545303 106.32584381 105.88872482 105.53251648 106.19088364 104.71514893 C108.9157297 97.32883971 111.56632148 89.96059538 113.74212265 82.3899231 C114.71023651 79.26925671 115.94477911 76.2786407 117.18084335 73.25613403 C129.30758386 44.38053402 129.30758386 44.38053402 129.42718124 14.18167114 C117.90165331 8.55897436 103.97431904 7.82676383 91.42718124 6.18167114 C91.09718124 4.53167114 90.76718124 2.88167114 90.42718124 1.18167114 C122.10718124 1.18167114 153.78718124 1.18167114 186.42718124 1.18167114 C186.75718124 2.83167114 187.08718124 4.48167114 187.42718124 6.18167114 C183.36494332 9.03684408 180.14846293 9.66644413 175.23968124 10.11917114 C166.54508036 11.10010047 159.41357009 12.37810127 153.70147324 19.3939209 C151.50574516 22.47438709 150.08446215 25.82993697 148.61858749 29.30276489 C148.27896484 30.08751694 147.93934219 30.87226898 147.58942795 31.68080139 C144.06181384 39.89639892 140.73761647 48.19516998 137.44775009 56.50820923 C135.50765518 61.40912184 133.55413 66.30469008 131.60296249 71.20120239 C131.18842819 72.24239227 130.77389389 73.28358215 130.34679794 74.35632324 C125.76676533 85.85421578 121.14365993 97.33467152 116.51263046 108.81210327 C115.53682675 111.23052887 114.56140524 113.64910871 113.58636093 116.06784058 C108.43316478 128.84990133 103.25909804 141.62257503 98.00921249 154.36526489 C85.66528717 184.34256859 73.38617811 214.40406535 63.82073593 245.41043091 C63.5426207 246.28884644 63.26450546 247.16726196 62.97796249 248.07229614 C62.63245346 249.20199829 62.63245346 249.20199829 62.27996445 250.35452271 C61.42718124 252.18167114 61.42718124 252.18167114 58.42718124 254.18167114 C56.09518737 254.26072178 53.75885502 254.26965883 51.42718124 254.18167114 C51.05133896 253.18877075 50.67549667 252.19587036 50.28826523 251.17288208 C36.8223925 215.65324594 22.22981268 180.7293753 6.87459946 145.98840332 C4.22383527 139.99053826 1.5833755 133.98824275 -1.04938126 127.98245239 C-1.41743378 127.14288498 -1.7854863 126.30331757 -2.16469193 125.43830872 C-2.90826171 123.74206143 -3.65181742 122.04580797 -4.39535904 120.34954834 C-11.85373094 103.339316 -19.33821472 86.3405374 -26.86041641 69.35842896 C-27.64086394 67.5963897 -28.42130033 65.83434552 -29.20172501 64.07229614 C-29.57833267 63.222099 -29.95494034 62.37190186 -30.34296036 61.49594116 C-32.36519452 56.92623304 -34.37518713 52.35157234 -36.36609268 47.76812744 C-37.19756927 45.85454979 -38.03232737 43.94244046 -38.86822891 42.03079224 C-39.83451544 39.81800542 -40.79451945 37.60245682 -41.7461586 35.3833313 C-47.24298871 22.7464106 -47.24298871 22.7464106 -57.57281876 14.18167114 C-60.51342293 13.13060337 -63.48372906 12.32022572 -66.51031876 11.55667114 C-68.0611348 11.14794898 -69.61191653 10.73909659 -71.16266251 10.33010864 C-73.32201666 9.76622776 -75.48149298 9.20469083 -77.64557266 8.65921021 C-82.40613207 7.40392006 -82.40613207 7.40392006 -84.07281876 5.18167114 C-84.57281876 3.18167114 -84.57281876 3.18167114 -83.57281876 1.18167114 C-55.71671195 0.50970757 -27.86403322 0.05999016 0 0 Z " fill="#C2BFFD" transform="translate(204.57281875610352,128.81832885742188)"/>
<path d="M0 0 C1.20709122 0.00328812 2.41418243 0.00657623 3.65785217 0.00996399 C6.19521522 0.02034707 8.73255523 0.04023227 11.26977539 0.0690918 C15.17151809 0.11341031 19.07264539 0.13056756 22.97460938 0.14257812 C25.44141522 0.15599245 27.90821345 0.17091272 30.375 0.1875 C32.13420021 0.1985804 32.13420021 0.1985804 33.92893982 0.20988464 C35.00418411 0.22271988 36.07942841 0.23555511 37.18725586 0.2487793 C38.1379747 0.2586235 39.08869354 0.26846771 40.06822205 0.27861023 C42.22265625 0.42578125 42.22265625 0.42578125 43.22265625 1.42578125 C43.3104123 3.57136952 43.32960844 5.71982546 43.3203125 7.8671875 C43.31547852 9.82495117 43.31547852 9.82495117 43.31054688 11.82226562 C43.30219026 13.21093815 43.2937253 14.59961002 43.28515625 15.98828125 C43.28014291 17.38085781 43.27557972 18.77343606 43.27148438 20.16601562 C43.25965059 23.58597995 43.24316505 27.00585969 43.22265625 30.42578125 C35.91178884 30.51874213 28.6010503 30.58967749 21.28971004 30.63302994 C17.89417987 30.65384436 14.4990561 30.68204713 11.10375977 30.72753906 C7.19422382 30.77958914 3.28484852 30.79877743 -0.625 30.81640625 C-1.83567642 30.83705139 -3.04635284 30.85769653 -4.29371643 30.87896729 C-11.0314675 30.88075191 -15.34059803 30.53581657 -20.77734375 26.42578125 C-24.06092823 22.88961335 -25.05772634 20.14401331 -25.27734375 15.42578125 C-25.05009422 10.69615034 -24.12089135 7.93650623 -20.77734375 4.42578125 C-13.85760239 0.0207543 -8.07479462 -0.12201837 0 0 Z " fill="#1E3790" transform="translate(56.77734375,327.57421875)"/>
<path d="M0 0 C4.14132056 1.99067769 6.2271041 4.69372058 8.20275879 8.87670898 C9.83161398 13.93147023 9.49014937 19.14816222 9.3984375 24.40625 C9.39277771 25.63790894 9.38711792 26.86956787 9.38128662 28.1385498 C9.35899481 32.0511044 9.30880871 35.96272474 9.2578125 39.875 C9.2354719 42.53644493 9.21948933 45.19788109 9.203125 47.859375 C9.16256482 54.36522803 9.08425287 60.86907506 9.0078125 67.375 C-0.8921875 67.375 -10.7921875 67.375 -20.9921875 67.375 C-21.07623215 60.07011903 -21.15634775 52.76700396 -21.19918823 45.46205902 C-21.22025095 42.05986194 -21.24836404 38.65806796 -21.29394531 35.25610352 C-21.34599539 31.34656757 -21.36518368 27.43719227 -21.3828125 23.52734375 C-21.40345764 22.31666733 -21.42410278 21.10599091 -21.44537354 19.85862732 C-21.44715767 13.12270808 -21.1066329 8.80766122 -16.9921875 3.375 C-11.86017726 -1.27961394 -6.51904477 -2.04519052 0 0 Z " fill="#1E3790" transform="translate(174.9921875,32.625)"/>
<path d="M0 0 C1.88290489 0.00848969 1.88290489 0.00848969 3.80384827 0.01715088 C7.12015945 0.03568446 10.43534332 0.07153733 13.75134277 0.1159668 C17.14337313 0.15709219 20.53552401 0.17541859 23.92773438 0.1953125 C30.56833743 0.23591539 37.2069833 0.31422224 43.84765625 0.390625 C43.84765625 10.290625 43.84765625 20.190625 43.84765625 30.390625 C36.0182882 30.48261496 28.19080664 30.56221163 20.36132812 30.61035156 C17.69955378 30.62816149 15.03864597 30.65768785 12.37695312 30.69238281 C8.54416045 30.74108048 4.71195262 30.76363616 0.87890625 30.78125 C-0.30473511 30.80189514 -1.48837646 30.82254028 -2.70788574 30.84381104 C-9.67403135 30.84568924 -14.26603819 30.22136798 -20.15234375 26.390625 C-23.7946051 22.19915889 -24.82201345 18.04637616 -24.53125 12.53125 C-23.67234661 7.67888858 -21.13348442 5.1336954 -17.32202148 2.24707031 C-11.91744711 -0.7169628 -5.99779063 -0.10227773 0 0 Z " fill="#1E3790" transform="translate(56.15234375,153.609375)"/>
<path d="M0 0 C4.5503934 2.25566711 7.31799282 5.54435586 9.0078125 10.33984375 C9.54345544 14.73066642 9.47377025 19.07450951 9.3984375 23.4921875 C9.39277771 24.74745743 9.38711792 26.00272736 9.38128662 27.29603577 C9.36275304 30.61234695 9.32690017 33.92753082 9.2824707 37.24353027 C9.24134531 40.63556063 9.22301891 44.02771151 9.203125 47.41992188 C9.16252211 54.06052493 9.08421526 60.6991708 9.0078125 67.33984375 C-0.8921875 67.33984375 -10.7921875 67.33984375 -20.9921875 67.33984375 C-21.08417746 59.5104757 -21.16377413 51.68299414 -21.21191406 43.85351562 C-21.22972399 41.19174128 -21.25925035 38.53083347 -21.29394531 35.86914062 C-21.34264298 32.03634795 -21.36519866 28.20414012 -21.3828125 24.37109375 C-21.40345764 23.18745239 -21.42410278 22.00381104 -21.44537354 20.78430176 C-21.4472547 13.80717588 -20.7856345 9.25381898 -16.9921875 3.33984375 C-11.96735699 -1.33441719 -6.4388317 -2.13365207 0 0 Z " fill="#1E3790" transform="translate(348.9921875,32.66015625)"/>
<path d="M0 0 C9.9 0 19.8 0 30 0 C30.06895434 7.70500867 30.12866611 15.40894205 30.16479492 23.11401367 C30.17985979 25.73384229 30.20031554 28.35364578 30.22631836 30.97338867 C30.26280162 34.74404105 30.27974988 38.51435926 30.29296875 42.28515625 C30.30845261 43.45208511 30.32393646 44.61901398 30.33988953 45.82130432 C30.34150219 53.6543519 29.78405558 58.79833609 24.5 64.875 C20.61030256 68.18124283 17.18917816 68.35311166 12.28125 68.2734375 C8.62903171 67.83567161 6.69586454 66.44508644 4 64 C-0.85864449 57.58470779 -0.52435431 51.68983643 -0.390625 43.84765625 C-0.38496521 42.59238632 -0.37930542 41.33711639 -0.37347412 40.04380798 C-0.35494054 36.7274968 -0.31908767 33.41231293 -0.2746582 30.09631348 C-0.23353281 26.70428312 -0.21520641 23.31213224 -0.1953125 19.91992188 C-0.15470961 13.27931882 -0.07640276 6.64067295 0 0 Z " fill="#1E3790" transform="translate(154,412)"/>
<path d="M0 0 C7.82936805 -0.09198996 15.65684961 -0.17158663 23.48632812 -0.21972656 C26.14810247 -0.23753649 28.80901028 -0.26706285 31.47070312 -0.30175781 C35.3034958 -0.35045548 39.13570363 -0.37301116 42.96875 -0.390625 C44.74421204 -0.42159271 44.74421204 -0.42159271 46.55554199 -0.45318604 C53.53266787 -0.4550672 58.08602477 0.206553 64 4 C67.1112597 7.34460418 68.25610216 9.95587716 68.5 14.4375 C68.24675207 19.13841478 67.09005126 22.44400995 64 26 C57.0607362 30.51599663 51.09860547 30.53242641 42.96875 30.390625 C41.73709106 30.38496521 40.50543213 30.37930542 39.2364502 30.37347412 C35.3238956 30.35118231 31.41227526 30.30099621 27.5 30.25 C24.83855507 30.2276594 22.17711891 30.21167683 19.515625 30.1953125 C13.00977197 30.15475232 6.50592494 30.07644037 0 30 C0 20.1 0 10.2 0 0 Z " fill="#1E3790" transform="translate(412,241)"/>
<path d="M0 0 C4.14132056 1.99067769 6.2271041 4.69372058 8.20275879 8.87670898 C9.83161398 13.93147023 9.49014937 19.14816222 9.3984375 24.40625 C9.39277771 25.63790894 9.38711792 26.86956787 9.38128662 28.1385498 C9.35899481 32.0511044 9.30880871 35.96272474 9.2578125 39.875 C9.2354719 42.53644493 9.21948933 45.19788109 9.203125 47.859375 C9.16256482 54.36522803 9.08425287 60.86907506 9.0078125 67.375 C-0.8921875 67.375 -10.7921875 67.375 -20.9921875 67.375 C-21.08417746 59.54563195 -21.16377413 51.71815039 -21.21191406 43.88867188 C-21.22972399 41.22689753 -21.25925035 38.56598972 -21.29394531 35.90429688 C-21.34264298 32.0715042 -21.36519866 28.23929637 -21.3828125 24.40625 C-21.40345764 23.22260864 -21.42410278 22.03896729 -21.44537354 20.81945801 C-21.4472547 13.84233213 -20.7856345 9.28897523 -16.9921875 3.375 C-11.93652953 -1.32793765 -6.47962905 -2.0328248 0 0 Z " fill="#1E3790" transform="translate(261.9921875,32.625)"/>
<path d="M0 0 C1.8474884 0.00848969 1.8474884 0.00848969 3.7322998 0.01715088 C7.6448544 0.03944269 11.55647474 0.08962879 15.46875 0.140625 C18.13019493 0.1629656 20.79163109 0.17894817 23.453125 0.1953125 C29.95897803 0.23587268 36.46282506 0.31418463 42.96875 0.390625 C42.96875 10.290625 42.96875 20.190625 42.96875 30.390625 C35.13938195 30.48261496 27.31190039 30.56221163 19.48242188 30.61035156 C16.82064753 30.62816149 14.15973972 30.65768785 11.49804688 30.69238281 C7.6652542 30.74108048 3.83304637 30.76363616 0 30.78125 C-1.18364136 30.80189514 -2.36728271 30.82254028 -3.58679199 30.84381104 C-10.5529376 30.84568924 -15.14494444 30.22136798 -21.03125 26.390625 C-24.67211728 22.20076317 -25.70633754 18.0453585 -25.40625 12.53125 C-24.77930975 8.95246605 -23.4932769 7.03730391 -21.03125 4.390625 C-14.05354335 -0.08513949 -8.1514718 -0.14217845 0 0 Z " fill="#1D3790" transform="translate(57.03125,240.609375)"/>
<path d="M0 0 C7.82936805 -0.09198996 15.65684961 -0.17158663 23.48632812 -0.21972656 C26.14810247 -0.23753649 28.80901028 -0.26706285 31.47070312 -0.30175781 C35.3034958 -0.35045548 39.13570363 -0.37301116 42.96875 -0.390625 C44.74421204 -0.42159271 44.74421204 -0.42159271 46.55554199 -0.45318604 C53.53266787 -0.4550672 58.08602477 0.206553 64 4 C67.1112597 7.34460418 68.25610216 9.95587716 68.5 14.4375 C68.24675207 19.13841478 67.09005126 22.44400995 64 26 C57.0607362 30.51599663 51.09860547 30.53242641 42.96875 30.390625 C41.73709106 30.38496521 40.50543213 30.37930542 39.2364502 30.37347412 C35.3238956 30.35118231 31.41227526 30.30099621 27.5 30.25 C24.83855507 30.2276594 22.17711891 30.21167683 19.515625 30.1953125 C13.00977197 30.15475232 6.50592494 30.07644037 0 30 C0 20.1 0 10.2 0 0 Z " fill="#1E3790" transform="translate(412,154)"/>
<path d="M0 0 C9.9 0 19.8 0 30 0 C30.09198996 7.82936805 30.17158663 15.65684961 30.21972656 23.48632812 C30.23753649 26.14810247 30.26706285 28.80901028 30.30175781 31.47070312 C30.35045548 35.3034958 30.37301116 39.13570363 30.390625 42.96875 C30.41127014 44.15239136 30.43191528 45.33603271 30.45318604 46.55554199 C30.4550672 53.53266787 29.793447 58.08602477 26 64 C22.65539582 67.1112597 20.04412284 68.25610216 15.5625 68.5 C10.71607398 68.26299097 7.89102017 66.87935492 4 64 C0.50147127 59.33529502 -0.12664778 55.21843235 -0.11352539 49.49707031 C-0.11344986 48.39623108 -0.11337433 47.29539185 -0.11329651 46.16119385 C-0.10813522 44.97878113 -0.10297394 43.79636841 -0.09765625 42.578125 C-0.0962413 41.36300232 -0.09482635 40.14787964 -0.09336853 38.89593506 C-0.08776988 35.01393169 -0.0752176 31.13198594 -0.0625 27.25 C-0.05748483 24.61849042 -0.05292195 21.98697993 -0.04882812 19.35546875 C-0.03865168 12.90360576 -0.01907582 6.4518674 0 0 Z " fill="#1E3790" transform="translate(328,412)"/>
<path d="M0 0 C9.9 0 19.8 0 30 0 C30.09198996 7.82936805 30.17158663 15.65684961 30.21972656 23.48632812 C30.23753649 26.14810247 30.26706285 28.80901028 30.30175781 31.47070312 C30.35045548 35.3034958 30.37301116 39.13570363 30.390625 42.96875 C30.41127014 44.15239136 30.43191528 45.33603271 30.45318604 46.55554199 C30.45506388 53.52034153 29.83537112 58.11714928 26 64 C22.06640236 67.35382824 18.16052498 68.69600155 12.984375 68.375 C9.35986455 67.69005314 6.79802215 66.38562419 4 64 C-0.52097357 57.06554391 -0.53237971 51.09592763 -0.390625 42.96875 C-0.38496521 41.73709106 -0.37930542 40.50543213 -0.37347412 39.2364502 C-0.35118231 35.3238956 -0.30099621 31.41227526 -0.25 27.5 C-0.2276594 24.83855507 -0.21167683 22.17711891 -0.1953125 19.515625 C-0.15475232 13.00977197 -0.07644037 6.50592494 0 0 Z " fill="#1E3790" transform="translate(241,412)"/>
<path d="M0 0 C7.70500867 -0.06895434 15.40894205 -0.12866611 23.11401367 -0.16479492 C25.73384229 -0.17985979 28.35364578 -0.20031554 30.97338867 -0.22631836 C34.74404105 -0.26280162 38.51435926 -0.27974988 42.28515625 -0.29296875 C43.45208511 -0.30845261 44.61901398 -0.32393646 45.82130432 -0.33988953 C53.66575506 -0.34150453 58.84393727 0.18698757 64.875 5.5625 C68.33872087 9.53559158 68.35099107 12.32156341 68.26953125 17.4609375 C67.86095125 21.30987958 66.65578755 23.21142308 64 26 C57.01749117 30.47068289 51.12294741 30.53285099 42.96875 30.390625 C41.73709106 30.38496521 40.50543213 30.37930542 39.2364502 30.37347412 C35.3238956 30.35118231 31.41227526 30.30099621 27.5 30.25 C24.83855507 30.2276594 22.17711891 30.21167683 19.515625 30.1953125 C13.00977197 30.15475232 6.50592494 30.07644037 0 30 C0 20.1 0 10.2 0 0 Z " fill="#1E3790" transform="translate(412,328)"/>
</svg>
